<svg aria-hidden="true" style="position: absolute; width: 0; height: 0; overflow: hidden;" version="1.1" xmlns="http://www.w3.org/2000/svg" xmlns:xlink="http://www.w3.org/1999/xlink">
<defs>
<symbol id="icon-alert-octagon" viewBox="0 0 24 24">
<path d="M7.86 1c-0.256 0-0.512 0.098-0.707 0.293l-5.86 5.86c-0.181 0.181-0.293 0.431-0.293 0.707v8.28c0 0.256 0.098 0.512 0.293 0.707l5.86 5.86c0.181 0.181 0.431 0.293 0.707 0.293h8.28c0.256 0 0.512-0.098 0.707-0.293l5.86-5.86c0.181-0.181 0.293-0.431 0.293-0.707v-8.28c0-0.256-0.098-0.512-0.293-0.707l-5.86-5.86c-0.181-0.181-0.431-0.293-0.707-0.293zM8.274 3h7.452l5.274 5.274v7.452l-5.274 5.274h-7.452l-5.274-5.274v-7.452zM11 8v4c0 0.552 0.448 1 1 1s1-0.448 1-1v-4c0-0.552-0.448-1-1-1s-1 0.448-1 1zM12 17c0.552 0 1-0.448 1-1s-0.448-1-1-1-1 0.448-1 1 0.448 1 1 1z"></path>
</symbol>
<symbol id="icon-alert-triangle" viewBox="0 0 24 24">
<path d="M11.148 4.374c0.073-0.123 0.185-0.242 0.334-0.332 0.236-0.143 0.506-0.178 0.756-0.116s0.474 0.216 0.614 0.448l8.466 14.133c0.070 0.12 0.119 0.268 0.128 0.434-0.015 0.368-0.119 0.591-0.283 0.759-0.18 0.184-0.427 0.298-0.693 0.301l-16.937-0.001c-0.152-0.001-0.321-0.041-0.481-0.134-0.239-0.138-0.399-0.359-0.466-0.607s-0.038-0.519 0.092-0.745zM9.432 3.346l-8.47 14.14c-0.422 0.731-0.506 1.55-0.308 2.29s0.68 1.408 1.398 1.822c0.464 0.268 0.976 0.4 1.475 0.402h16.943c0.839-0.009 1.587-0.354 2.123-0.902s0.864-1.303 0.855-2.131c-0.006-0.536-0.153-1.044-0.406-1.474l-8.474-14.147c-0.432-0.713-1.11-1.181-1.854-1.363s-1.561-0.081-2.269 0.349c-0.429 0.26-0.775 0.615-1.012 1.014zM11 9v4c0 0.552 0.448 1 1 1s1-0.448 1-1v-4c0-0.552-0.448-1-1-1s-1 0.448-1 1zM12 18c0.552 0 1-0.448 1-1s-0.448-1-1-1-1 0.448-1 1 0.448 1 1 1z"></path>
</symbol>
<symbol id="icon-align-justify" viewBox="0 0 24 24">
<path d="M21 9h-18c-0.552 0-1 0.448-1 1s0.448 1 1 1h18c0.552 0 1-0.448 1-1s-0.448-1-1-1zM21 5h-18c-0.552 0-1 0.448-1 1s0.448 1 1 1h18c0.552 0 1-0.448 1-1s-0.448-1-1-1zM21 13h-18c-0.552 0-1 0.448-1 1s0.448 1 1 1h18c0.552 0 1-0.448 1-1s-0.448-1-1-1zM21 17h-18c-0.552 0-1 0.448-1 1s0.448 1 1 1h18c0.552 0 1-0.448 1-1s-0.448-1-1-1z"></path>
</symbol>
<symbol id="icon-archive" viewBox="0 0 24 24">
<path d="M4 9h16v11h-16zM1 2c-0.552 0-1 0.448-1 1v5c0 0.552 0.448 1 1 1h1v12c0 0.552 0.448 1 1 1h18c0.552 0 1-0.448 1-1v-12h1c0.552 0 1-0.448 1-1v-5c0-0.552-0.448-1-1-1zM2 4h20v3h-20zM10 13h4c0.552 0 1-0.448 1-1s-0.448-1-1-1h-4c-0.552 0-1 0.448-1 1s0.448 1 1 1z"></path>
</symbol>
<symbol id="icon-arrow-down-circle" viewBox="0 0 24 24">
<path d="M23 12c0-3.037-1.232-5.789-3.222-7.778s-4.741-3.222-7.778-3.222-5.789 1.232-7.778 3.222-3.222 4.741-3.222 7.778 1.232 5.789 3.222 7.778 4.741 3.222 7.778 3.222 5.789-1.232 7.778-3.222 3.222-4.741 3.222-7.778zM21 12c0 2.486-1.006 4.734-2.636 6.364s-3.878 2.636-6.364 2.636-4.734-1.006-6.364-2.636-2.636-3.878-2.636-6.364 1.006-4.734 2.636-6.364 3.878-2.636 6.364-2.636 4.734 1.006 6.364 2.636 2.636 3.878 2.636 6.364zM11 8v5.586l-2.293-2.293c-0.391-0.391-1.024-0.391-1.414 0s-0.391 1.024 0 1.414l4 4c0.092 0.092 0.202 0.166 0.324 0.217 0.245 0.101 0.521 0.101 0.766 0 0.118-0.049 0.228-0.121 0.324-0.217l4-4c0.391-0.391 0.391-1.024 0-1.414s-1.024-0.391-1.414 0l-2.293 2.293v-5.586c0-0.552-0.448-1-1-1s-1 0.448-1 1z"></path>
</symbol>
<symbol id="icon-arrow-down-right" viewBox="0 0 24 24">
<path d="M16 7v7.586l-8.293-8.293c-0.391-0.391-1.024-0.391-1.414 0s-0.391 1.024 0 1.414l8.293 8.293h-7.586c-0.552 0-1 0.448-1 1s0.448 1 1 1h10c0.136 0 0.265-0.027 0.383-0.076s0.228-0.121 0.324-0.217c0.092-0.092 0.166-0.202 0.217-0.324 0.049-0.118 0.076-0.247 0.076-0.383v-10c0-0.552-0.448-1-1-1s-1 0.448-1 1z"></path>
</symbol>
<symbol id="icon-arrow-left" viewBox="0 0 24 24">
<path d="M12.707 18.293l-5.293-5.293h11.586c0.552 0 1-0.448 1-1s-0.448-1-1-1h-11.586l5.293-5.293c0.391-0.391 0.391-1.024 0-1.414s-1.024-0.391-1.414 0l-7 7c-0.096 0.096-0.168 0.206-0.217 0.324-0.051 0.122-0.076 0.253-0.076 0.383 0 0.256 0.098 0.512 0.293 0.707l7 7c0.391 0.391 1.024 0.391 1.414 0s0.391-1.024 0-1.414z"></path>
</symbol>
<symbol id="icon-bookmark" viewBox="0 0 24 24">
<path d="M18.419 21.814c0.161 0.116 0.363 0.186 0.581 0.186 0.552 0 1-0.448 1-1v-16c0-0.828-0.337-1.58-0.879-2.121s-1.293-0.879-2.121-0.879h-10c-0.828 0-1.58 0.337-2.121 0.879s-0.879 1.293-0.879 2.121v16c-0.001 0.199 0.060 0.404 0.186 0.581 0.321 0.449 0.946 0.554 1.395 0.232l6.419-4.584zM18 19.057l-5.419-3.871c-0.355-0.254-0.819-0.242-1.162 0l-5.419 3.871v-14.057c0-0.276 0.111-0.525 0.293-0.707s0.431-0.293 0.707-0.293h10c0.276 0 0.525 0.111 0.707 0.293s0.293 0.431 0.293 0.707z"></path>
</symbol>
<symbol id="icon-camera" viewBox="0 0 24 24">
<path d="M24 19v-11c0-0.828-0.337-1.58-0.879-2.121s-1.293-0.879-2.121-0.879h-3.465l-1.703-2.555c-0.182-0.27-0.486-0.445-0.832-0.445h-6c-0.326 0.002-0.64 0.158-0.832 0.445l-1.703 2.555h-3.465c-0.828 0-1.58 0.337-2.121 0.879s-0.879 1.293-0.879 2.121v11c0 0.828 0.337 1.58 0.879 2.121s1.293 0.879 2.121 0.879h18c0.828 0 1.58-0.337 2.121-0.879s0.879-1.293 0.879-2.121zM22 19c0 0.276-0.111 0.525-0.293 0.707s-0.431 0.293-0.707 0.293h-18c-0.276 0-0.525-0.111-0.707-0.293s-0.293-0.431-0.293-0.707v-11c0-0.276 0.111-0.525 0.293-0.707s0.431-0.293 0.707-0.293h4c0.346 0 0.65-0.175 0.832-0.445l1.703-2.555h4.93l1.703 2.555c0.192 0.287 0.506 0.443 0.832 0.445h4c0.276 0 0.525 0.111 0.707 0.293s0.293 0.431 0.293 0.707zM17 13c0-1.38-0.561-2.632-1.464-3.536s-2.156-1.464-3.536-1.464-2.632 0.561-3.536 1.464-1.464 2.156-1.464 3.536 0.561 2.632 1.464 3.536 2.156 1.464 3.536 1.464 2.632-0.561 3.536-1.464 1.464-2.156 1.464-3.536zM15 13c0 0.829-0.335 1.577-0.879 2.121s-1.292 0.879-2.121 0.879-1.577-0.335-2.121-0.879-0.879-1.292-0.879-2.121 0.335-1.577 0.879-2.121 1.292-0.879 2.121-0.879 1.577 0.335 2.121 0.879 0.879 1.292 0.879 2.121z"></path>
</symbol>
<symbol id="icon-chevron-down" viewBox="0 0 24 24">
<path d="M5.293 9.707l6 6c0.391 0.391 1.024 0.391 1.414 0l6-6c0.391-0.391 0.391-1.024 0-1.414s-1.024-0.391-1.414 0l-5.293 5.293-5.293-5.293c-0.391-0.391-1.024-0.391-1.414 0s-0.391 1.024 0 1.414z"></path>
</symbol>
<symbol id="icon-chevron-left" viewBox="0 0 24 24">
<path d="M15.707 17.293l-5.293-5.293 5.293-5.293c0.391-0.391 0.391-1.024 0-1.414s-1.024-0.391-1.414 0l-6 6c-0.391 0.391-0.391 1.024 0 1.414l6 6c0.391 0.391 1.024 0.391 1.414 0s0.391-1.024 0-1.414z"></path>
</symbol>
<symbol id="icon-chevron-right" viewBox="0 0 24 24">
<path d="M9.707 18.707l6-6c0.391-0.391 0.391-1.024 0-1.414l-6-6c-0.391-0.391-1.024-0.391-1.414 0s-0.391 1.024 0 1.414l5.293 5.293-5.293 5.293c-0.391 0.391-0.391 1.024 0 1.414s1.024 0.391 1.414 0z"></path>
</symbol>
<symbol id="icon-chevron-up" viewBox="0 0 24 24">
<path d="M18.707 14.293l-6-6c-0.391-0.391-1.024-0.391-1.414 0l-6 6c-0.391 0.391-0.391 1.024 0 1.414s1.024 0.391 1.414 0l5.293-5.293 5.293 5.293c0.391 0.391 1.024 0.391 1.414 0s0.391-1.024 0-1.414z"></path>
</symbol>
<symbol id="icon-chevrons-down" viewBox="0 0 24 24">
<path d="M6.293 13.707l5 5c0.391 0.391 1.024 0.391 1.414 0l5-5c0.391-0.391 0.391-1.024 0-1.414s-1.024-0.391-1.414 0l-4.293 4.293-4.293-4.293c-0.391-0.391-1.024-0.391-1.414 0s-0.391 1.024 0 1.414zM6.293 6.707l5 5c0.391 0.391 1.024 0.391 1.414 0l5-5c0.391-0.391 0.391-1.024 0-1.414s-1.024-0.391-1.414 0l-4.293 4.293-4.293-4.293c-0.391-0.391-1.024-0.391-1.414 0s-0.391 1.024 0 1.414z"></path>
</symbol>
<symbol id="icon-chevrons-right" viewBox="0 0 24 24">
<path d="M13.707 17.707l5-5c0.391-0.391 0.391-1.024 0-1.414l-5-5c-0.391-0.391-1.024-0.391-1.414 0s-0.391 1.024 0 1.414l4.293 4.293-4.293 4.293c-0.391 0.391-0.391 1.024 0 1.414s1.024 0.391 1.414 0zM6.707 17.707l5-5c0.391-0.391 0.391-1.024 0-1.414l-5-5c-0.391-0.391-1.024-0.391-1.414 0s-0.391 1.024 0 1.414l4.293 4.293-4.293 4.293c-0.391 0.391-0.391 1.024 0 1.414s1.024 0.391 1.414 0z"></path>
</symbol>
<symbol id="icon-clock" viewBox="0 0 24 24">
<path d="M23 12c0-3.037-1.232-5.789-3.222-7.778s-4.741-3.222-7.778-3.222-5.789 1.232-7.778 3.222-3.222 4.741-3.222 7.778 1.232 5.789 3.222 7.778 4.741 3.222 7.778 3.222 5.789-1.232 7.778-3.222 3.222-4.741 3.222-7.778zM21 12c0 2.486-1.006 4.734-2.636 6.364s-3.878 2.636-6.364 2.636-4.734-1.006-6.364-2.636-2.636-3.878-2.636-6.364 1.006-4.734 2.636-6.364 3.878-2.636 6.364-2.636 4.734 1.006 6.364 2.636 2.636 3.878 2.636 6.364zM11 6v6c0 0.389 0.222 0.727 0.553 0.894l4 2c0.494 0.247 1.095 0.047 1.342-0.447s0.047-1.095-0.447-1.342l-3.448-1.723v-5.382c0-0.552-0.448-1-1-1s-1 0.448-1 1z"></path>
</symbol>
<symbol id="icon-cloud" viewBox="0 0 24 24">
<path d="M18 11c1.105 0 2.103 0.447 2.828 1.172s1.172 1.723 1.172 2.828-0.447 2.103-1.172 2.828-1.723 1.172-2.828 1.172h-8.995c-1.463-0.008-2.853-0.461-4.005-1.258-1.334-0.922-2.348-2.304-2.784-3.992-0.483-1.872-0.163-3.761 0.748-5.305s2.408-2.739 4.28-3.223 3.761-0.163 5.305 0.748 2.739 2.408 3.223 4.28c0.115 0.435 0.505 0.75 0.968 0.75zM18 9h-0.52c-0.725-2.057-2.143-3.708-3.915-4.753-1.983-1.169-4.415-1.583-6.821-0.961s-4.334 2.16-5.503 4.143-1.582 4.415-0.961 6.821c0.56 2.169 1.867 3.951 3.583 5.137 1.478 1.023 3.261 1.603 5.132 1.613h9.005c1.657 0 3.158-0.673 4.243-1.757s1.757-2.586 1.757-4.243-0.673-3.158-1.757-4.243-2.586-1.757-4.243-1.757z"></path>
</symbol>
<symbol id="icon-cloud-drizzle" viewBox="0 0 24 24">
<path d="M7 19v2c0 0.552 0.448 1 1 1s1-0.448 1-1v-2c0-0.552-0.448-1-1-1s-1 0.448-1 1zM7 13v2c0 0.552 0.448 1 1 1s1-0.448 1-1v-2c0-0.552-0.448-1-1-1s-1 0.448-1 1zM15 19v2c0 0.552 0.448 1 1 1s1-0.448 1-1v-2c0-0.552-0.448-1-1-1s-1 0.448-1 1zM15 13v2c0 0.552 0.448 1 1 1s1-0.448 1-1v-2c0-0.552-0.448-1-1-1s-1 0.448-1 1zM11 21v2c0 0.552 0.448 1 1 1s1-0.448 1-1v-2c0-0.552-0.448-1-1-1s-1 0.448-1 1zM11 15v2c0 0.552 0.448 1 1 1s1-0.448 1-1v-2c0-0.552-0.448-1-1-1s-1 0.448-1 1zM20.401 17.496c1.517-0.665 2.623-1.883 3.181-3.312s0.572-3.074-0.092-4.591c-0.574-1.311-1.563-2.316-2.752-2.925-0.836-0.428-1.771-0.66-2.73-0.668h-0.528c-0.725-2.057-2.143-3.708-3.915-4.753-1.983-1.169-4.415-1.582-6.821-0.961s-4.334 2.161-5.503 4.144-1.582 4.415-0.961 6.821c0.509 1.97 1.634 3.623 3.099 4.783 0.433 0.343 1.062 0.27 1.405-0.163s0.27-1.062-0.163-1.405c-1.132-0.897-2.008-2.179-2.405-3.716-0.483-1.871-0.163-3.76 0.748-5.305s2.408-2.739 4.28-3.223 3.761-0.163 5.305 0.748 2.739 2.408 3.223 4.28c0.115 0.435 0.505 0.75 0.968 0.75h1.252c0.647 0.005 1.275 0.162 1.834 0.448 0.793 0.406 1.448 1.073 1.832 1.947 0.443 1.012 0.435 2.106 0.062 3.061s-1.109 1.765-2.121 2.208c-0.506 0.222-0.736 0.811-0.515 1.317s0.811 0.736 1.317 0.515z"></path>
</symbol>
<symbol id="icon-cloud-lightning" viewBox="0 0 24 24">
<path d="M19.199 17.88c1.623-0.33 2.961-1.288 3.808-2.566s1.208-2.884 0.878-4.507c-0.303-1.491-1.136-2.742-2.267-3.592-1.018-0.767-2.279-1.21-3.614-1.215h-0.524c-0.725-2.057-2.143-3.708-3.915-4.753-1.983-1.169-4.415-1.582-6.821-0.961s-4.334 2.162-5.503 4.144-1.582 4.415-0.961 6.821c0.597 2.313 2.043 4.184 3.919 5.365 0.143 0.090 0.288 0.176 0.436 0.258 0.483 0.268 1.092 0.093 1.359-0.39s0.093-1.092-0.39-1.359c-0.115-0.064-0.229-0.131-0.34-0.201-1.462-0.921-2.583-2.374-3.048-4.173-0.483-1.872-0.163-3.761 0.747-5.305s2.408-2.739 4.28-3.223 3.761-0.163 5.305 0.747 2.739 2.408 3.223 4.28c0.116 0.435 0.506 0.75 0.969 0.75h1.256c0.896 0.004 1.74 0.3 2.42 0.812 0.754 0.567 1.307 1.397 1.509 2.392 0.22 1.083-0.019 2.15-0.585 3.005s-1.456 1.491-2.539 1.711c-0.541 0.11-0.891 0.638-0.781 1.179s0.638 0.891 1.179 0.781zM12.168 10.445l-4 6c-0.306 0.46-0.182 1.080 0.277 1.387 0.172 0.115 0.367 0.169 0.555 0.168h4.131l-2.964 4.445c-0.306 0.46-0.182 1.080 0.277 1.387s1.080 0.182 1.387-0.277l4-6c0.106-0.156 0.169-0.348 0.169-0.555 0-0.552-0.448-1-1-1h-4.131l2.964-4.445c0.306-0.46 0.182-1.080-0.277-1.387s-1.080-0.182-1.387 0.277z"></path>
</symbol>
<symbol id="icon-compass" viewBox="0 0 24 24">
<path d="M23 12c0-3.037-1.232-5.789-3.222-7.778s-4.741-3.222-7.778-3.222-5.789 1.232-7.778 3.222-3.222 4.741-3.222 7.778 1.232 5.789 3.222 7.778 4.741 3.222 7.778 3.222 5.789-1.232 7.778-3.222 3.222-4.741 3.222-7.778zM21 12c0 2.486-1.006 4.734-2.636 6.364s-3.878 2.636-6.364 2.636-4.734-1.006-6.364-2.636-2.636-3.878-2.636-6.364 1.006-4.734 2.636-6.364 3.878-2.636 6.364-2.636 4.734 1.006 6.364 2.636 2.636 3.878 2.636 6.364zM17.189 8.076c0.066-0.196 0.072-0.418 0-0.632-0.175-0.524-0.741-0.807-1.265-0.632l-6.36 2.12c-0.29 0.098-0.529 0.323-0.632 0.632l-2.12 6.36c-0.066 0.196-0.072 0.418 0 0.632 0.175 0.524 0.741 0.807 1.265 0.632l6.36-2.12c0.29-0.098 0.529-0.323 0.632-0.632zM14.659 9.341l-1.33 3.988-3.988 1.33 1.329-3.988z"></path>
</symbol>
<symbol id="icon-corner-down-left" viewBox="0 0 24 24">
<path d="M19 4v7c0 0.829-0.335 1.577-0.879 2.121s-1.292 0.879-2.121 0.879h-9.586l3.293-3.293c0.391-0.391 0.391-1.024 0-1.414s-1.024-0.391-1.414 0l-5 5c-0.092 0.092-0.166 0.202-0.217 0.324-0.15 0.362-0.078 0.795 0.217 1.090l5 5c0.391 0.391 1.024 0.391 1.414 0s0.391-1.024 0-1.414l-3.293-3.293h9.586c1.38 0 2.632-0.561 3.536-1.464s1.464-2.156 1.464-3.536v-7c0-0.552-0.448-1-1-1s-1 0.448-1 1z"></path>
</symbol>
<symbol id="icon-corner-down-right" viewBox="0 0 24 24">
<path d="M3 4v7c0 1.38 0.561 2.632 1.464 3.536s2.156 1.464 3.536 1.464h9.586l-3.293 3.293c-0.391 0.391-0.391 1.024 0 1.414s1.024 0.391 1.414 0l5-5c0.092-0.092 0.166-0.202 0.217-0.324 0.15-0.362 0.078-0.795-0.217-1.090l-5-5c-0.391-0.391-1.024-0.391-1.414 0s-0.391 1.024 0 1.414l3.293 3.293h-9.586c-0.829 0-1.577-0.335-2.121-0.879s-0.879-1.292-0.879-2.121v-7c0-0.552-0.448-1-1-1s-1 0.448-1 1z"></path>
</symbol>
<symbol id="icon-corner-left-down" viewBox="0 0 24 24">
<path d="M20 3h-7c-1.38 0-2.632 0.561-3.536 1.464s-1.464 2.156-1.464 3.536v9.586l-3.293-3.293c-0.391-0.391-1.024-0.391-1.414 0s-0.391 1.024 0 1.414l5 5c0.092 0.092 0.202 0.166 0.324 0.217 0.245 0.101 0.521 0.101 0.766 0 0.118-0.049 0.228-0.121 0.324-0.217l5-5c0.391-0.391 0.391-1.024 0-1.414s-1.024-0.391-1.414 0l-3.293 3.293v-9.586c0-0.829 0.335-1.577 0.879-2.121s1.292-0.879 2.121-0.879h7c0.552 0 1-0.448 1-1s-0.448-1-1-1z"></path>
</symbol>
<symbol id="icon-corner-left-up" viewBox="0 0 24 24">
<path d="M20 19h-7c-0.829 0-1.577-0.335-2.121-0.879s-0.879-1.292-0.879-2.121v-9.586l3.293 3.293c0.391 0.391 1.024 0.391 1.414 0s0.391-1.024 0-1.414l-5-5c-0.096-0.096-0.206-0.168-0.324-0.217s-0.247-0.076-0.383-0.076-0.265 0.027-0.383 0.076c-0.118 0.049-0.228 0.121-0.324 0.217l-5 5c-0.391 0.391-0.391 1.024 0 1.414s1.024 0.391 1.414 0l3.293-3.293v9.586c0 1.38 0.561 2.632 1.464 3.536s2.156 1.464 3.536 1.464h7c0.552 0 1-0.448 1-1s-0.448-1-1-1z"></path>
</symbol>
<symbol id="icon-credit-card" viewBox="0 0 24 24">
<path d="M3 3c-0.828 0-1.58 0.337-2.121 0.879s-0.879 1.293-0.879 2.121v12c0 0.828 0.337 1.58 0.879 2.121s1.293 0.879 2.121 0.879h18c0.828 0 1.58-0.337 2.121-0.879s0.879-1.293 0.879-2.121v-12c0-0.828-0.337-1.58-0.879-2.121s-1.293-0.879-2.121-0.879zM22 9h-20v-3c0-0.276 0.111-0.525 0.293-0.707s0.431-0.293 0.707-0.293h18c0.276 0 0.525 0.111 0.707 0.293s0.293 0.431 0.293 0.707zM2 11h20v7c0 0.276-0.111 0.525-0.293 0.707s-0.431 0.293-0.707 0.293h-18c-0.276 0-0.525-0.111-0.707-0.293s-0.293-0.431-0.293-0.707z"></path>
</symbol>
<symbol id="icon-facebook" viewBox="0 0 24 24">
<path d="M17 3v2h-2c-0.552 0-1.053 0.225-1.414 0.586s-0.586 0.862-0.586 1.414v3c0 0.552 0.448 1 1 1h2.719l-0.5 2h-2.219c-0.552 0-1 0.448-1 1v7h-2v-7c0-0.552-0.448-1-1-1h-2v-2h2c0.552 0 1-0.448 1-1v-3c0-1.105 0.447-2.103 1.172-2.828s1.723-1.172 2.828-1.172zM18 1h-3c-1.657 0-3.158 0.673-4.243 1.757s-1.757 2.586-1.757 4.243v2h-2c-0.552 0-1 0.448-1 1v4c0 0.552 0.448 1 1 1h2v7c0 0.552 0.448 1 1 1h4c0.552 0 1-0.448 1-1v-7h2c0.466 0 0.858-0.319 0.97-0.757l1-4c0.134-0.536-0.192-1.079-0.728-1.213-0.083-0.021-0.167-0.031-0.242-0.030h-3v-2h3c0.552 0 1-0.448 1-1v-4c0-0.552-0.448-1-1-1z"></path>
</symbol>
<symbol id="icon-globe" viewBox="0 0 24 24">
<path d="M16.951 11c-0.214-2.69-1.102-5.353-2.674-7.71 1.57 0.409 2.973 1.232 4.087 2.346 1.408 1.408 2.351 3.278 2.581 5.364zM14.279 20.709c1.483-2.226 2.437-4.853 2.669-7.709h3.997c-0.23 2.086-1.173 3.956-2.581 5.364-1.113 1.113-2.516 1.936-4.085 2.345zM7.049 13c0.214 2.69 1.102 5.353 2.674 7.71-1.57-0.409-2.973-1.232-4.087-2.346-1.408-1.408-2.351-3.278-2.581-5.364zM9.721 3.291c-1.482 2.226-2.436 4.853-2.669 7.709h-3.997c0.23-2.086 1.173-3.956 2.581-5.364 1.114-1.113 2.516-1.936 4.085-2.345zM12.004 1c0 0 0 0 0 0-3.044 0.001-5.794 1.233-7.782 3.222-1.99 1.989-3.222 4.741-3.222 7.778s1.232 5.789 3.222 7.778c1.988 1.989 4.738 3.221 7.774 3.222 0 0 0 0 0 0 3.044-0.001 5.793-1.233 7.782-3.222 1.99-1.989 3.222-4.741 3.222-7.778s-1.232-5.789-3.222-7.778c-1.988-1.989-4.738-3.221-7.774-3.222zM14.946 13c-0.252 2.788-1.316 5.36-2.945 7.451-1.729-2.221-2.706-4.818-2.945-7.451zM11.999 3.549c1.729 2.221 2.706 4.818 2.945 7.451h-5.89c0.252-2.788 1.316-5.36 2.945-7.451z"></path>
</symbol>
<symbol id="icon-lock" viewBox="0 0 24 24">
<path d="M5 12h14c0.276 0 0.525 0.111 0.707 0.293s0.293 0.431 0.293 0.707v7c0 0.276-0.111 0.525-0.293 0.707s-0.431 0.293-0.707 0.293h-14c-0.276 0-0.525-0.111-0.707-0.293s-0.293-0.431-0.293-0.707v-7c0-0.276 0.111-0.525 0.293-0.707s0.431-0.293 0.707-0.293zM18 10v-3c0-1.657-0.673-3.158-1.757-4.243s-2.586-1.757-4.243-1.757-3.158 0.673-4.243 1.757-1.757 2.586-1.757 4.243v3h-1c-0.828 0-1.58 0.337-2.121 0.879s-0.879 1.293-0.879 2.121v7c0 0.828 0.337 1.58 0.879 2.121s1.293 0.879 2.121 0.879h14c0.828 0 1.58-0.337 2.121-0.879s0.879-1.293 0.879-2.121v-7c0-0.828-0.337-1.58-0.879-2.121s-1.293-0.879-2.121-0.879zM8 10v-3c0-1.105 0.447-2.103 1.172-2.828s1.723-1.172 2.828-1.172 2.103 0.447 2.828 1.172 1.172 1.723 1.172 2.828v3z"></path>
</symbol>
<symbol id="icon-mail" viewBox="0 0 24 24">
<path d="M3 7.921l8.427 5.899c0.34 0.235 0.795 0.246 1.147 0l8.426-5.899v10.079c0 0.272-0.11 0.521-0.295 0.705s-0.433 0.295-0.705 0.295h-16c-0.272 0-0.521-0.11-0.705-0.295s-0.295-0.433-0.295-0.705zM1 5.983c0 0.010 0 0.020 0 0.030v11.987c0 0.828 0.34 1.579 0.88 2.12s1.292 0.88 2.12 0.88h16c0.828 0 1.579-0.34 2.12-0.88s0.88-1.292 0.88-2.12v-11.988c0-0.010 0-0.020 0-0.030-0.005-0.821-0.343-1.565-0.88-2.102-0.541-0.54-1.292-0.88-2.12-0.88h-16c-0.828 0-1.579 0.34-2.12 0.88-0.537 0.537-0.875 1.281-0.88 2.103zM20.894 5.554l-8.894 6.225-8.894-6.225c0.048-0.096 0.112-0.183 0.188-0.259 0.185-0.185 0.434-0.295 0.706-0.295h16c0.272 0 0.521 0.11 0.705 0.295 0.076 0.076 0.14 0.164 0.188 0.259z"></path>
</symbol>
<symbol id="icon-more-horizontal" viewBox="0 0 24 24">
<path d="M14 12c0-0.552-0.225-1.053-0.586-1.414s-0.862-0.586-1.414-0.586-1.053 0.225-1.414 0.586-0.586 0.862-0.586 1.414 0.225 1.053 0.586 1.414 0.862 0.586 1.414 0.586 1.053-0.225 1.414-0.586 0.586-0.862 0.586-1.414zM21 12c0-0.552-0.225-1.053-0.586-1.414s-0.862-0.586-1.414-0.586-1.053 0.225-1.414 0.586-0.586 0.862-0.586 1.414 0.225 1.053 0.586 1.414 0.862 0.586 1.414 0.586 1.053-0.225 1.414-0.586 0.586-0.862 0.586-1.414zM7 12c0-0.552-0.225-1.053-0.586-1.414s-0.862-0.586-1.414-0.586-1.053 0.225-1.414 0.586-0.586 0.862-0.586 1.414 0.225 1.053 0.586 1.414 0.862 0.586 1.414 0.586 1.053-0.225 1.414-0.586 0.586-0.862 0.586-1.414z"></path>
</symbol>
<symbol id="icon-more-vertical" viewBox="0 0 24 24">
<path d="M14 12c0-0.552-0.225-1.053-0.586-1.414s-0.862-0.586-1.414-0.586-1.053 0.225-1.414 0.586-0.586 0.862-0.586 1.414 0.225 1.053 0.586 1.414 0.862 0.586 1.414 0.586 1.053-0.225 1.414-0.586 0.586-0.862 0.586-1.414zM14 5c0-0.552-0.225-1.053-0.586-1.414s-0.862-0.586-1.414-0.586-1.053 0.225-1.414 0.586-0.586 0.862-0.586 1.414 0.225 1.053 0.586 1.414 0.862 0.586 1.414 0.586 1.053-0.225 1.414-0.586 0.586-0.862 0.586-1.414zM14 19c0-0.552-0.225-1.053-0.586-1.414s-0.862-0.586-1.414-0.586-1.053 0.225-1.414 0.586-0.586 0.862-0.586 1.414 0.225 1.053 0.586 1.414 0.862 0.586 1.414 0.586 1.053-0.225 1.414-0.586 0.586-0.862 0.586-1.414z"></path>
</symbol>
<symbol id="icon-navigation" viewBox="0 0 24 24">
<path d="M2.572 10.096c-0.262 0.125-0.467 0.36-0.542 0.661-0.134 0.536 0.192 1.079 0.728 1.213l7.418 1.854 1.854 7.418c0.071 0.281 0.261 0.528 0.542 0.661 0.499 0.236 1.095 0.023 1.332-0.476l9-19c0.124-0.263 0.133-0.575 0-0.856-0.236-0.499-0.833-0.712-1.332-0.476zM5.953 10.708l13.945-6.606-6.606 13.945-1.322-5.29c-0.092-0.369-0.378-0.638-0.728-0.728z"></path>
</symbol>
<symbol id="icon-plus" viewBox="0 0 24 24">
<path d="M5 13h6v6c0 0.552 0.448 1 1 1s1-0.448 1-1v-6h6c0.552 0 1-0.448 1-1s-0.448-1-1-1h-6v-6c0-0.552-0.448-1-1-1s-1 0.448-1 1v6h-6c-0.552 0-1 0.448-1 1s0.448 1 1 1z"></path>
</symbol>
<symbol id="icon-printer" viewBox="0 0 24 24">
<path d="M17 8h-10v-5h10zM5 19v3c0 0.552 0.448 1 1 1h12c0.552 0 1-0.448 1-1v-3h1c0.828 0 1.58-0.337 2.121-0.879s0.879-1.293 0.879-2.121v-5c0-0.828-0.337-1.58-0.879-2.121s-1.293-0.879-2.121-0.879h-1v-6c0-0.552-0.448-1-1-1h-12c-0.552 0-1 0.448-1 1v6h-1c-0.828 0-1.58 0.337-2.121 0.879s-0.879 1.293-0.879 2.121v5c0 0.828 0.337 1.58 0.879 2.121s1.293 0.879 2.121 0.879zM6 13c-0.552 0-1 0.448-1 1v3h-1c-0.276 0-0.525-0.111-0.707-0.293s-0.293-0.431-0.293-0.707v-5c0-0.276 0.111-0.525 0.293-0.707s0.431-0.293 0.707-0.293h16c0.276 0 0.525 0.111 0.707 0.293s0.293 0.431 0.293 0.707v5c0 0.276-0.111 0.525-0.293 0.707s-0.431 0.293-0.707 0.293h-1v-3c0-0.552-0.448-1-1-1zM7 15h10v6h-10z"></path>
</symbol>
<symbol id="icon-settings" viewBox="0 0 24 24">
<path d="M16 12c0-1.104-0.449-2.106-1.172-2.828s-1.724-1.172-2.828-1.172-2.106 0.449-2.828 1.172-1.172 1.724-1.172 2.828 0.449 2.106 1.172 2.828 1.724 1.172 2.828 1.172 2.106-0.449 2.828-1.172 1.172-1.724 1.172-2.828zM14 12c0 0.553-0.223 1.051-0.586 1.414s-0.861 0.586-1.414 0.586-1.051-0.223-1.414-0.586-0.586-0.861-0.586-1.414 0.223-1.051 0.586-1.414 0.861-0.586 1.414-0.586 1.051 0.223 1.414 0.586 0.586 0.861 0.586 1.414zM20.315 15.404c0.046-0.105 0.112-0.191 0.192-0.257 0.112-0.092 0.251-0.146 0.403-0.147h0.090c0.828 0 1.58-0.337 2.121-0.879s0.879-1.293 0.879-2.121-0.337-1.58-0.879-2.121-1.293-0.879-2.121-0.879h-0.159c-0.11-0.001-0.215-0.028-0.308-0.076-0.127-0.066-0.23-0.172-0.292-0.312-0.003-0.029-0.004-0.059-0.004-0.089-0.024-0.055-0.040-0.111-0.049-0.168 0.020-0.334 0.077-0.454 0.168-0.547l0.062-0.062c0.585-0.586 0.878-1.356 0.877-2.122s-0.294-1.536-0.881-2.122c-0.586-0.585-1.356-0.878-2.122-0.877s-1.536 0.294-2.12 0.879l-0.046 0.046c-0.083 0.080-0.183 0.136-0.288 0.166-0.14 0.039-0.291 0.032-0.438-0.033-0.101-0.044-0.187-0.11-0.253-0.19-0.092-0.112-0.146-0.251-0.147-0.403v-0.090c0-0.828-0.337-1.58-0.879-2.121s-1.293-0.879-2.121-0.879-1.58 0.337-2.121 0.879-0.879 1.293-0.879 2.121v0.159c-0.001 0.11-0.028 0.215-0.076 0.308-0.066 0.127-0.172 0.23-0.312 0.292-0.029 0.003-0.059 0.004-0.089 0.004-0.055 0.024-0.111 0.040-0.168 0.049-0.335-0.021-0.455-0.078-0.548-0.169l-0.062-0.062c-0.586-0.585-1.355-0.878-2.122-0.878s-1.535 0.294-2.122 0.882c-0.585 0.586-0.878 1.355-0.878 2.122s0.294 1.536 0.879 2.12l0.048 0.047c0.080 0.083 0.136 0.183 0.166 0.288 0.039 0.14 0.032 0.291-0.031 0.434-0.006 0.016-0.013 0.034-0.021 0.052-0.041 0.109-0.108 0.203-0.191 0.275-0.11 0.095-0.25 0.153-0.383 0.156h-0.090c-0.828 0-1.58 0.337-2.121 0.879s-0.879 1.294-0.879 2.122 0.337 1.58 0.879 2.121 1.293 0.879 2.121 0.879h0.159c0.11 0.001 0.215 0.028 0.308 0.076 0.128 0.067 0.233 0.174 0.296 0.321 0.024 0.055 0.040 0.111 0.049 0.168-0.020 0.334-0.077 0.454-0.168 0.547l-0.062 0.062c-0.585 0.586-0.878 1.356-0.877 2.122s0.294 1.536 0.881 2.122c0.586 0.585 1.356 0.878 2.122 0.877s1.536-0.294 2.12-0.879l0.047-0.048c0.083-0.080 0.183-0.136 0.288-0.166 0.14-0.039 0.291-0.032 0.434 0.031 0.016 0.006 0.034 0.013 0.052 0.021 0.109 0.041 0.203 0.108 0.275 0.191 0.095 0.11 0.153 0.25 0.156 0.383v0.092c0 0.828 0.337 1.58 0.879 2.121s1.293 0.879 2.121 0.879 1.58-0.337 2.121-0.879 0.879-1.293 0.879-2.121v-0.159c0.001-0.11 0.028-0.215 0.076-0.308 0.067-0.128 0.174-0.233 0.321-0.296 0.055-0.024 0.111-0.040 0.168-0.049 0.334 0.020 0.454 0.077 0.547 0.168l0.062 0.062c0.586 0.585 1.356 0.878 2.122 0.877s1.536-0.294 2.122-0.881c0.585-0.586 0.878-1.356 0.877-2.122s-0.294-1.536-0.879-2.12l-0.048-0.047c-0.080-0.083-0.136-0.183-0.166-0.288-0.039-0.14-0.032-0.291 0.031-0.434zM18.396 9.302c-0.012-0.201-0.038-0.297-0.076-0.382v0.080c0 0.043 0.003 0.084 0.008 0.125 0.021 0.060 0.043 0.119 0.068 0.177 0.004 0.090 0.005 0.091 0.005 0.092 0.249 0.581 0.684 1.030 1.208 1.303 0.371 0.193 0.785 0.298 1.211 0.303h0.18c0.276 0 0.525 0.111 0.707 0.293s0.293 0.431 0.293 0.707-0.111 0.525-0.293 0.707-0.431 0.293-0.707 0.293h-0.090c-0.637 0.003-1.22 0.228-1.675 0.603-0.323 0.266-0.581 0.607-0.75 0.993-0.257 0.582-0.288 1.21-0.127 1.782 0.119 0.423 0.341 0.814 0.652 1.136l0.072 0.073c0.196 0.196 0.294 0.45 0.294 0.707s-0.097 0.512-0.292 0.707c-0.197 0.197-0.451 0.295-0.709 0.295s-0.512-0.097-0.707-0.292l-0.061-0.061c-0.463-0.453-1.040-0.702-1.632-0.752-0.437-0.037-0.882 0.034-1.293 0.212-0.578 0.248-1.027 0.683-1.3 1.206-0.193 0.371-0.298 0.785-0.303 1.211v0.181c0 0.276-0.111 0.525-0.293 0.707s-0.43 0.292-0.706 0.292-0.525-0.111-0.707-0.293-0.293-0.431-0.293-0.707v-0.090c-0.015-0.66-0.255-1.242-0.644-1.692-0.284-0.328-0.646-0.585-1.058-0.744-0.575-0.247-1.193-0.274-1.756-0.116-0.423 0.119-0.814 0.341-1.136 0.652l-0.073 0.072c-0.196 0.196-0.45 0.294-0.707 0.294s-0.512-0.097-0.707-0.292c-0.197-0.197-0.295-0.451-0.295-0.709s0.097-0.512 0.292-0.707l0.061-0.061c0.453-0.463 0.702-1.040 0.752-1.632 0.037-0.437-0.034-0.882-0.212-1.293-0.248-0.578-0.683-1.027-1.206-1.3-0.371-0.193-0.785-0.298-1.211-0.303l-0.18 0.001c-0.276 0-0.525-0.111-0.707-0.293s-0.293-0.431-0.293-0.707 0.111-0.525 0.293-0.707 0.431-0.293 0.707-0.293h0.090c0.66-0.015 1.242-0.255 1.692-0.644 0.328-0.284 0.585-0.646 0.744-1.058 0.247-0.575 0.274-1.193 0.116-1.756-0.119-0.423-0.341-0.814-0.652-1.136l-0.073-0.073c-0.196-0.196-0.294-0.45-0.294-0.707s0.097-0.512 0.292-0.707c0.197-0.197 0.451-0.295 0.709-0.295s0.512 0.097 0.707 0.292l0.061 0.061c0.463 0.453 1.040 0.702 1.632 0.752 0.37 0.032 0.745-0.014 1.101-0.137 0.096-0.012 0.186-0.036 0.266-0.072-0.031 0.001-0.061 0.003-0.089 0.004-0.201 0.012-0.297 0.038-0.382 0.076h0.080c0.043 0 0.084-0.003 0.125-0.008 0.060-0.021 0.119-0.043 0.177-0.068 0.090-0.004 0.091-0.005 0.092-0.005 0.581-0.249 1.030-0.684 1.303-1.208 0.193-0.37 0.298-0.785 0.303-1.21v-0.181c0-0.276 0.111-0.525 0.293-0.707s0.431-0.293 0.707-0.293 0.525 0.111 0.707 0.293 0.293 0.431 0.293 0.707v0.090c0.003 0.637 0.228 1.22 0.603 1.675 0.266 0.323 0.607 0.581 0.996 0.751 0.578 0.255 1.206 0.286 1.778 0.125 0.423-0.119 0.814-0.341 1.136-0.652l0.073-0.072c0.196-0.196 0.45-0.294 0.707-0.294s0.512 0.097 0.707 0.292c0.197 0.197 0.295 0.451 0.295 0.709s-0.097 0.512-0.292 0.707l-0.061 0.061c-0.453 0.463-0.702 1.040-0.752 1.632-0.032 0.37 0.014 0.745 0.137 1.101 0.012 0.095 0.037 0.185 0.072 0.266-0.001-0.032-0.002-0.062-0.004-0.089z"></path>
</symbol>
<symbol id="icon-share" viewBox="0 0 24 24">
<path d="M3 12v8c0 0.828 0.337 1.58 0.879 2.121s1.293 0.879 2.121 0.879h12c0.828 0 1.58-0.337 2.121-0.879s0.879-1.293 0.879-2.121v-8c0-0.552-0.448-1-1-1s-1 0.448-1 1v8c0 0.276-0.111 0.525-0.293 0.707s-0.431 0.293-0.707 0.293h-12c-0.276 0-0.525-0.111-0.707-0.293s-0.293-0.431-0.293-0.707v-8c0-0.552-0.448-1-1-1s-1 0.448-1 1zM11 4.414v10.586c0 0.552 0.448 1 1 1s1-0.448 1-1v-10.586l2.293 2.293c0.391 0.391 1.024 0.391 1.414 0s0.391-1.024 0-1.414l-4-4c-0.092-0.092-0.202-0.166-0.324-0.217-0.245-0.101-0.521-0.101-0.766 0-0.118 0.049-0.228 0.121-0.324 0.217l-4 4c-0.391 0.391-0.391 1.024 0 1.414s1.024 0.391 1.414 0z"></path>
</symbol>
<symbol id="icon-trash-2" viewBox="0 0 24 24">
<path d="M18 7v13c0 0.276-0.111 0.525-0.293 0.707s-0.431 0.293-0.707 0.293h-10c-0.276 0-0.525-0.111-0.707-0.293s-0.293-0.431-0.293-0.707v-13zM17 5v-1c0-0.828-0.337-1.58-0.879-2.121s-1.293-0.879-2.121-0.879h-4c-0.828 0-1.58 0.337-2.121 0.879s-0.879 1.293-0.879 2.121v1h-4c-0.552 0-1 0.448-1 1s0.448 1 1 1h1v13c0 0.828 0.337 1.58 0.879 2.121s1.293 0.879 2.121 0.879h10c0.828 0 1.58-0.337 2.121-0.879s0.879-1.293 0.879-2.121v-13h1c0.552 0 1-0.448 1-1s-0.448-1-1-1zM9 5v-1c0-0.276 0.111-0.525 0.293-0.707s0.431-0.293 0.707-0.293h4c0.276 0 0.525 0.111 0.707 0.293s0.293 0.431 0.293 0.707v1zM9 11v6c0 0.552 0.448 1 1 1s1-0.448 1-1v-6c0-0.552-0.448-1-1-1s-1 0.448-1 1zM13 11v6c0 0.552 0.448 1 1 1s1-0.448 1-1v-6c0-0.552-0.448-1-1-1s-1 0.448-1 1z"></path>
</symbol>
<symbol id="icon-truck" viewBox="0 0 24 24">
<path d="M15 15h-13v-11h13v4zM17 9h2.586l2.414 2.414v3.586h-5zM7 18.5c0 0.414-0.167 0.788-0.439 1.061s-0.647 0.439-1.061 0.439-0.788-0.167-1.061-0.439-0.439-0.647-0.439-1.061 0.167-0.788 0.439-1.061 0.647-0.439 1.061-0.439 0.788 0.167 1.061 0.439 0.439 0.647 0.439 1.061zM22 18.5c0-0.537-0.121-1.045-0.337-1.5h1.337c0.552 0 1-0.448 1-1v-5c0-0.256-0.098-0.512-0.293-0.707l-3-3c-0.181-0.181-0.431-0.293-0.707-0.293h-3v-4c0-0.552-0.448-1-1-1h-15c-0.552 0-1 0.448-1 1v13c0 0.552 0.448 1 1 1h1.337c-0.216 0.455-0.337 0.963-0.337 1.5 0 0.966 0.393 1.843 1.025 2.475s1.509 1.025 2.475 1.025 1.843-0.393 2.475-1.025 1.025-1.509 1.025-2.475c0-0.537-0.121-1.045-0.337-1.5h6.674c-0.216 0.455-0.337 0.963-0.337 1.5 0 0.966 0.393 1.843 1.025 2.475s1.509 1.025 2.475 1.025 1.843-0.393 2.475-1.025 1.025-1.509 1.025-2.475zM20 18.5c0 0.414-0.167 0.788-0.439 1.061s-0.647 0.439-1.061 0.439-0.788-0.167-1.061-0.439-0.439-0.647-0.439-1.061 0.167-0.788 0.439-1.061 0.647-0.439 1.061-0.439 0.788 0.167 1.061 0.439 0.439 0.647 0.439 1.061z"></path>
</symbol>
<symbol id="icon-twitter" viewBox="0 0 24 24">
<path d="M20.833 5.262c-0.186 0.242-0.391 0.475-0.616 0.696-0.233 0.232-0.347 0.567-0.278 0.908 0.037 0.182 0.060 0.404 0.061 0.634 0 5.256-2.429 8.971-5.81 10.898-2.647 1.509-5.938 1.955-9.222 1.12 1.245-0.361 2.46-0.921 3.593-1.69 0.147-0.099 0.273-0.243 0.352-0.421 0.224-0.505-0.003-1.096-0.508-1.32-2.774-1.233-4.13-2.931-4.769-4.593-0.417-1.084-0.546-2.198-0.52-3.227 0.021-0.811 0.138-1.56 0.278-2.182 0.394 0.343 0.803 0.706 1.235 1.038 2.051 1.577 4.624 2.479 7.395 2.407 0.543-0.015 0.976-0.457 0.976-1v-1.011c-0.002-0.179 0.009-0.357 0.034-0.533 0.113-0.806 0.504-1.569 1.162-2.141 0.725-0.631 1.636-0.908 2.526-0.846s1.753 0.463 2.384 1.188c0.252 0.286 0.649 0.416 1.033 0.304 0.231-0.067 0.463-0.143 0.695-0.228zM22.424 2.183c-0.74 0.522-1.523 0.926-2.287 1.205-0.931-0.836-2.091-1.302-3.276-1.385-1.398-0.097-2.836 0.339-3.977 1.332-1.036 0.901-1.652 2.108-1.83 3.372-0.037 0.265-0.055 0.532-0.054 0.8-1.922-0.142-3.693-0.85-5.15-1.97-0.775-0.596-1.462-1.309-2.034-2.116-0.32-0.45-0.944-0.557-1.394-0.237-0.154 0.109-0.267 0.253-0.335 0.409 0 0-0.132 0.299-0.285 0.76-0.112 0.337-0.241 0.775-0.357 1.29-0.163 0.722-0.302 1.602-0.326 2.571-0.031 1.227 0.12 2.612 0.652 3.996 0.683 1.775 1.966 3.478 4.147 4.823-1.569 0.726-3.245 1.039-4.873 0.967-0.552-0.024-1.019 0.403-1.043 0.955-0.017 0.389 0.19 0.736 0.513 0.918 4.905 2.725 10.426 2.678 14.666 0.261 4.040-2.301 6.819-6.7 6.819-12.634-0.001-0.167-0.008-0.33-0.023-0.489 1.006-1.115 1.676-2.429 1.996-3.781 0.127-0.537-0.206-1.076-0.743-1.203-0.29-0.069-0.58-0.003-0.807 0.156z"></path>
</symbol>
<symbol id="icon-user" viewBox="0 0 24 24">
<path d="M21 21v-2c0-1.38-0.561-2.632-1.464-3.536s-2.156-1.464-3.536-1.464h-8c-1.38 0-2.632 0.561-3.536 1.464s-1.464 2.156-1.464 3.536v2c0 0.552 0.448 1 1 1s1-0.448 1-1v-2c0-0.829 0.335-1.577 0.879-2.121s1.292-0.879 2.121-0.879h8c0.829 0 1.577 0.335 2.121 0.879s0.879 1.292 0.879 2.121v2c0 0.552 0.448 1 1 1s1-0.448 1-1zM17 7c0-1.38-0.561-2.632-1.464-3.536s-2.156-1.464-3.536-1.464-2.632 0.561-3.536 1.464-1.464 2.156-1.464 3.536 0.561 2.632 1.464 3.536 2.156 1.464 3.536 1.464 2.632-0.561 3.536-1.464 1.464-2.156 1.464-3.536zM15 7c0 0.829-0.335 1.577-0.879 2.121s-1.292 0.879-2.121 0.879-1.577-0.335-2.121-0.879-0.879-1.292-0.879-2.121 0.335-1.577 0.879-2.121 1.292-0.879 2.121-0.879 1.577 0.335 2.121 0.879 0.879 1.292 0.879 2.121z"></path>
</symbol>
<symbol id="icon-watch" viewBox="0 0 24 24">
<path d="M11 9v3c0 0.276 0.112 0.526 0.293 0.707l1.5 1.5c0.391 0.391 1.024 0.391 1.414 0s0.391-1.024 0-1.414l-1.207-1.207v-2.586c0-0.552-0.448-1-1-1s-1 0.448-1 1zM15.33 19.276l-0.166 1.813c-0.024 0.266-0.147 0.495-0.333 0.658-0.18 0.159-0.415 0.253-0.67 0.253h-4.331c-0.27 0.001-0.509-0.1-0.69-0.269-0.175-0.164-0.291-0.389-0.315-0.643l-0.165-1.817c1.016 0.468 2.148 0.729 3.34 0.729 1.188 0 2.316-0.259 3.33-0.724zM8.187 7.367c1.037-0.855 2.364-1.367 3.813-1.367 1.657 0 3.156 0.67 4.243 1.757s1.757 2.586 1.757 4.243-0.67 3.156-1.757 4.243c-0.104 0.104-0.211 0.204-0.323 0.3-0.035 0.031-0.071 0.061-0.107 0.090-1.037 0.855-2.364 1.367-3.813 1.367-1.657 0-3.156-0.67-4.243-1.757s-1.757-2.586-1.757-4.243 0.67-3.156 1.757-4.243c0.104-0.104 0.211-0.204 0.323-0.3 0.035-0.031 0.071-0.061 0.107-0.090zM17.491 6.182l-0.315-3.455c-0.070-0.756-0.418-1.43-0.938-1.917-0.539-0.505-1.266-0.813-2.058-0.81h-4.354c-0.755 0.003-1.454 0.286-1.985 0.757-0.551 0.488-0.925 1.182-0.997 1.972l-0.314 3.433c-0.063 0.059-0.126 0.12-0.187 0.181-1.446 1.447-2.343 3.448-2.343 5.657s0.897 4.21 2.343 5.657c0.058 0.058 0.117 0.115 0.176 0.171l0.315 3.445c0.070 0.756 0.418 1.43 0.938 1.917 0.539 0.505 1.266 0.813 2.058 0.81h4.329c0.759 0.001 1.463-0.282 1.997-0.754 0.553-0.489 0.929-1.184 1-1.975l0.314-3.433c0.063-0.059 0.126-0.12 0.187-0.181 1.446-1.447 2.343-3.448 2.343-5.657s-0.897-4.21-2.343-5.657c-0.054-0.054-0.11-0.108-0.165-0.161zM8.67 4.724l0.166-1.813c0.024-0.265 0.147-0.494 0.331-0.657 0.179-0.159 0.412-0.253 0.667-0.254h4.346c0.27-0.001 0.509 0.1 0.69 0.269 0.175 0.164 0.291 0.389 0.315 0.643l0.166 1.821c-1.020-0.47-2.155-0.733-3.351-0.733-1.188 0-2.316 0.259-3.33 0.724z"></path>
</symbol>
<symbol id="icon-x" viewBox="0 0 24 24">
<path d="M5.293 6.707l5.293 5.293-5.293 5.293c-0.391 0.391-0.391 1.024 0 1.414s1.024 0.391 1.414 0l5.293-5.293 5.293 5.293c0.391 0.391 1.024 0.391 1.414 0s0.391-1.024 0-1.414l-5.293-5.293 5.293-5.293c0.391-0.391 0.391-1.024 0-1.414s-1.024-0.391-1.414 0l-5.293 5.293-5.293-5.293c-0.391-0.391-1.024-0.391-1.414 0s-0.391 1.024 0 1.414z"></path>
</symbol>
<symbol id="icon-public" viewBox="0 0 24 24">
<path d="M17.906 17.391q2.109-2.25 2.109-5.391 0-2.484-1.383-4.5t-3.633-2.906v0.422q0 0.797-0.609 1.383t-1.406 0.586h-1.969v2.016q0 0.422-0.305 0.703t-0.727 0.281h-1.969v2.016h6q0.422 0 0.703 0.281t0.281 0.703v3h0.984q1.406 0 1.922 1.406zM11.016 19.922v-1.922q-0.797 0-1.406-0.609t-0.609-1.406v-0.984l-4.781-4.781q-0.234 0.938-0.234 1.781 0 3.047 2.039 5.297t4.992 2.625zM12 2.016q4.125 0 7.055 2.93t2.93 7.055-2.93 7.055-7.055 2.93-7.055-2.93-2.93-7.055 2.93-7.055 7.055-2.93z"></path>
</symbol>
<symbol id="icon-star_half" viewBox="0 0 24 24">
<path d="M12 15.422l3.75 2.25-0.984-4.266 3.328-2.906-4.406-0.375-1.688-4.031v9.328zM21.984 9.234l-5.438 4.734 1.641 7.031-6.188-3.75-6.188 3.75 1.641-7.031-5.438-4.734 7.172-0.609 2.813-6.609 2.813 6.609z"></path>
</symbol>
<symbol id="icon-star_outline" viewBox="0 0 24 24">
<path d="M12 15.422l3.75 2.25-0.984-4.266 3.328-2.906-4.406-0.375-1.688-4.031-1.688 4.031-4.406 0.375 3.328 2.906-0.984 4.266zM21.984 9.234l-5.438 4.734 1.641 7.031-6.188-3.75-6.188 3.75 1.641-7.031-5.438-4.734 7.172-0.609 2.813-6.609 2.813 6.609z"></path>
</symbol>
<symbol id="icon-done_all" viewBox="0 0 24 24">
<path d="M0.422 13.406l1.406-1.406 5.578 5.578-1.406 1.406zM22.219 5.578l1.453 1.406-12 12-5.625-5.578 1.453-1.406 4.172 4.172zM18 6.984l-6.328 6.375-1.406-1.406 6.328-6.375z"></path>
</symbol>
<symbol id="icon-deck" viewBox="0 0 24 24">
<path d="M19.078 15.984l0.797-3.984 1.922 0.375-0.797 4.359v5.25h-2.016v-3.984h-1.969v3.984h-2.016v-6h4.078zM4.125 12l0.797 3.984h4.078v6h-2.016v-3.984h-1.969v3.984h-2.016v-5.25l-0.797-4.359zM21.984 9h-9v12.984h-1.969v-12.984h-9l9.984-6.984z"></path>
</symbol>
<symbol id="icon-email" viewBox="0 0 24 24">
<path d="M20.016 8.016v-2.016l-8.016 5.016-8.016-5.016v2.016l8.016 4.969zM20.016 3.984q0.797 0 1.383 0.609t0.586 1.406v12q0 0.797-0.586 1.406t-1.383 0.609h-16.031q-0.797 0-1.383-0.609t-0.586-1.406v-12q0-0.797 0.586-1.406t1.383-0.609h16.031z"></path>
</symbol>
<symbol id="icon-airplanemode_off" viewBox="0 0 24 24">
<path d="M3 5.25l1.266-1.266 15.75 15.75-1.266 1.266-5.766-5.719v3.703l2.016 1.5v1.5l-3.516-0.984-3.469 0.984v-1.5l1.969-1.5v-5.484l-7.969 2.484v-1.969l5.953-3.75zM12.984 9l8.016 5.016v1.969l-3.188-0.984-7.828-7.828v-3.656q0-0.609 0.445-1.055t1.055-0.445 1.055 0.445 0.445 1.055v5.484z"></path>
</symbol>
<symbol id="icon-airplanemode_on" viewBox="0 0 24 24">
<path d="M21 15.984l-8.016-2.484v5.484l2.016 1.5v1.5l-3.516-0.984-3.469 0.984v-1.5l1.969-1.5v-5.484l-7.969 2.484v-1.969l7.969-5.016v-5.484q0-0.609 0.445-1.055t1.055-0.445 1.055 0.445 0.445 1.055v5.484l8.016 5.016v1.969z"></path>
</symbol>
<symbol id="icon-picture_as_pdf" viewBox="0 0 24 24">
<path d="M14.016 11.484v-3h0.984v3h-0.984zM3.984 6v14.016h14.016v1.969h-14.016q-0.797 0-1.383-0.586t-0.586-1.383v-14.016h1.969zM9 9.516v-1.031h0.984v1.031h-0.984zM20.484 8.484v-1.5h-3v6h1.5v-1.969h1.5v-1.5h-1.5v-1.031h1.5zM16.5 11.484v-3q0-0.609-0.422-1.055t-1.078-0.445h-2.484v6h2.484q0.656 0 1.078-0.445t0.422-1.055zM11.484 9.516v-1.031q0-0.609-0.445-1.055t-1.055-0.445h-2.484v6h1.5v-1.969h0.984q0.609 0 1.055-0.445t0.445-1.055zM20.016 2.016q0.797 0 1.383 0.586t0.586 1.383v12q0 0.797-0.586 1.406t-1.383 0.609h-12q-0.797 0-1.406-0.609t-0.609-1.406v-12q0-0.797 0.609-1.383t1.406-0.586h12z"></path>
</symbol>
<symbol id="icon-view_comfy" viewBox="0 0 24 24">
<path d="M18 5.016h3.984v3.984h-3.984v-3.984zM18 18.984v-3.984h3.984v3.984h-3.984zM12.984 18.984v-3.984h4.031v3.984h-4.031zM8.016 18.984v-3.984h3.984v3.984h-3.984zM3 18.984v-3.984h3.984v3.984h-3.984zM18 14.016v-4.031h3.984v4.031h-3.984zM12.984 5.016h4.031v3.984h-4.031v-3.984zM8.016 9v-3.984h3.984v3.984h-3.984zM12.984 14.016v-4.031h4.031v4.031h-4.031zM8.016 14.016v-4.031h3.984v4.031h-3.984zM3 14.016v-4.031h3.984v4.031h-3.984zM3 9v-3.984h3.984v3.984h-3.984z"></path>
</symbol>
<symbol id="icon-directions_bus" viewBox="0 0 24 24">
<path d="M18 11.016v-5.016h-12v5.016h12zM16.5 17.016q0.656 0 1.078-0.445t0.422-1.055-0.422-1.055-1.078-0.445-1.078 0.445-0.422 1.055 0.422 1.055 1.078 0.445zM7.5 17.016q0.656 0 1.078-0.445t0.422-1.055-0.422-1.055-1.078-0.445-1.078 0.445-0.422 1.055 0.422 1.055 1.078 0.445zM3.984 15.984v-9.984q0-2.391 2.063-3.188t5.953-0.797 5.953 0.797 2.063 3.188v9.984q0 1.313-1.031 2.25v1.781q0 0.422-0.281 0.703t-0.703 0.281h-0.984q-0.422 0-0.727-0.281t-0.305-0.703v-1.031h-7.969v1.031q0 0.422-0.305 0.703t-0.727 0.281h-0.984q-0.422 0-0.703-0.281t-0.281-0.703v-1.781q-1.031-0.938-1.031-2.25z"></path>
</symbol>
<symbol id="icon-directions_ferry" viewBox="0 0 24 24">
<path d="M6 6v3.984l6-1.969 6 1.969v-3.984h-12zM3.938 18.984l-1.875-6.656q-0.047-0.094-0.047-0.328 0-0.656 0.703-0.938l1.266-0.422v-4.641q0-0.797 0.609-1.406t1.406-0.609h3v-3h6v3h3q0.797 0 1.406 0.609t0.609 1.406v4.641l1.266 0.422q0.984 0.328 0.656 1.266l-1.875 6.656h-0.047q-2.297 0-4.031-1.969-1.734 1.969-3.984 1.969t-3.984-1.969q-1.734 1.969-4.031 1.969h-0.047zM20.016 21h1.969v2.016h-1.969q-2.109 0-4.031-0.984-1.875 0.938-3.984 0.938t-3.984-0.938q-1.922 0.984-4.031 0.984h-1.969v-2.016h1.969q2.156 0 4.031-1.313 1.828 1.266 3.984 1.266t3.984-1.266q1.875 1.313 4.031 1.313z"></path>
</symbol>
<symbol id="icon-local_car_wash" viewBox="0 0 24 24">
<path d="M5.016 12.984h13.969l-1.5-4.5h-10.969zM17.484 18q0.609 0 1.055-0.422t0.445-1.078-0.445-1.078-1.055-0.422-1.055 0.422-0.445 1.078 0.445 1.078 1.055 0.422zM6.516 18q0.609 0 1.055-0.422t0.445-1.078-0.445-1.078-1.055-0.422-1.055 0.422-0.445 1.078 0.445 1.078 1.055 0.422zM18.938 8.016l2.063 6v7.969q0 0.422-0.281 0.727t-0.703 0.305h-1.031q-0.422 0-0.703-0.305t-0.281-0.727v-0.984h-12v0.984q0 0.422-0.281 0.727t-0.703 0.305h-1.031q-0.422 0-0.703-0.305t-0.281-0.727v-7.969l2.063-6q0.328-1.031 1.453-1.031h10.969q1.125 0 1.453 1.031zM6.984 5.016q-0.609 0-1.055-0.445t-0.445-1.055q0-0.422 0.375-1.102t0.75-1.148l0.375-0.469q1.5 1.734 1.5 2.719 0 0.609-0.445 1.055t-1.055 0.445zM12 5.016q-0.656 0-1.078-0.445t-0.422-1.055q0-0.422 0.375-1.102t0.75-1.148l0.375-0.469q1.5 1.734 1.5 2.719 0 0.609-0.422 1.055t-1.078 0.445zM17.016 5.016q-0.609 0-1.055-0.445t-0.445-1.055q0-0.422 0.375-1.102t0.75-1.148l0.375-0.469q1.5 1.734 1.5 2.719 0 0.609-0.445 1.055t-1.055 0.445z"></path>
</symbol>
<symbol id="icon-local_shipping" viewBox="0 0 24 24">
<path d="M18 18.516q0.656 0 1.078-0.445t0.422-1.055-0.422-1.055-1.078-0.445-1.078 0.445-0.422 1.055 0.422 1.055 1.078 0.445zM19.5 9.516h-2.484v2.484h4.453zM6 18.516q0.656 0 1.078-0.445t0.422-1.055-0.422-1.055-1.078-0.445-1.078 0.445-0.422 1.055 0.422 1.055 1.078 0.445zM20.016 8.016l3 3.984v5.016h-2.016q0 1.219-0.891 2.109t-2.109 0.891-2.109-0.891-0.891-2.109h-6q0 1.219-0.891 2.109t-2.109 0.891-2.109-0.891-0.891-2.109h-2.016v-11.016q0-0.797 0.609-1.406t1.406-0.609h14.016v4.031h3z"></path>
</symbol>
<symbol id="icon-departure_board" viewBox="0 0 24 24">
<path d="M16.5 3.984v4.266l2.859 1.688-0.75 1.219-3.609-2.156v-5.016h1.5zM15.984 12.984q2.063 0 3.539-1.453t1.477-3.516-1.477-3.539-3.539-1.477-3.516 1.477-1.453 3.539 1.453 3.516 3.516 1.453zM13.5 18.984q0.656 0 1.078-0.445t0.422-1.055-0.422-1.055-1.078-0.445-1.078 0.445-0.422 1.055 0.422 1.055 1.078 0.445zM3 12.984h8.109q-2.109-2.016-2.109-4.969h-6v4.969zM4.5 18.984q0.656 0 1.078-0.445t0.422-1.055-0.422-1.055-1.078-0.445-1.078 0.445-0.422 1.055 0.422 1.055 1.078 0.445zM15.984 0.984q2.906 0 4.969 2.063t2.063 4.969q0 2.625-1.734 4.57t-4.266 2.32v3.094q0 1.266-1.031 2.203v1.781q0 0.422-0.281 0.727t-0.703 0.305h-0.984q-0.422 0-0.727-0.305t-0.305-0.727v-0.984h-7.969v0.984q0 0.422-0.305 0.727t-0.727 0.305h-0.984q-0.422 0-0.703-0.305t-0.281-0.727v-1.781q-1.031-0.938-1.031-2.203v-9.984q0-2.391 2.063-3.211t5.953-0.82q0.188 0 0.609 0.023t0.609 0.023q2.109-3.047 5.766-3.047z"></path>
</symbol>
<symbol id="icon-event_available" viewBox="0 0 24 24">
<path d="M18.984 18.984v-10.969h-13.969v10.969h13.969zM18.984 3q0.797 0 1.406 0.609t0.609 1.406v13.969q0 0.797-0.609 1.406t-1.406 0.609h-13.969q-0.844 0-1.43-0.586t-0.586-1.43v-13.969q0-0.797 0.586-1.406t1.43-0.609h0.984v-2.016h2.016v2.016h7.969v-2.016h2.016v2.016h0.984zM16.547 11.063l-5.953 5.953-3.188-3.188 1.078-1.078 2.109 2.109 4.875-4.875z"></path>
</symbol>
<symbol id="icon-event_busy" viewBox="0 0 24 24">
<path d="M18.984 18.984v-10.969h-13.969v10.969h13.969zM18.984 3q0.797 0 1.406 0.609t0.609 1.406v13.969q0 0.797-0.609 1.406t-1.406 0.609h-13.969q-0.844 0-1.43-0.586t-0.586-1.43v-13.969q0-0.797 0.586-1.406t1.43-0.609h0.984v-2.016h2.016v2.016h7.969v-2.016h2.016v2.016h0.984zM9.328 17.016l-1.078-1.078 2.438-2.438-2.438-2.438 1.078-1.078 2.438 2.438 2.438-2.438 1.031 1.078-2.438 2.438 2.438 2.438-1.031 1.078-2.438-2.438z"></path>
</symbol>
<symbol id="icon-event_note" viewBox="0 0 24 24">
<path d="M14.016 14.016v1.969h-7.031v-1.969h7.031zM18.984 18.984v-10.969h-13.969v10.969h13.969zM18.984 3q0.797 0 1.406 0.609t0.609 1.406v13.969q0 0.797-0.609 1.406t-1.406 0.609h-13.969q-0.844 0-1.43-0.586t-0.586-1.43v-13.969q0-0.797 0.586-1.406t1.43-0.609h0.984v-2.016h2.016v2.016h7.969v-2.016h2.016v2.016h0.984zM17.016 9.984v2.016h-10.031v-2.016h10.031z"></path>
</symbol>
<symbol id="icon-public1" viewBox="0 0 24 24">
<path d="M17.906 17.391q2.109-2.25 2.109-5.391 0-2.484-1.383-4.5t-3.633-2.906v0.422q0 0.797-0.609 1.383t-1.406 0.586h-1.969v2.016q0 0.422-0.305 0.703t-0.727 0.281h-1.969v2.016h6q0.422 0 0.703 0.281t0.281 0.703v3h0.984q1.406 0 1.922 1.406zM11.016 19.922v-1.922q-0.797 0-1.406-0.609t-0.609-1.406v-0.984l-4.781-4.781q-0.234 0.938-0.234 1.781 0 3.047 2.039 5.297t4.992 2.625zM12 2.016q4.125 0 7.055 2.93t2.93 7.055-2.93 7.055-7.055 2.93-7.055-2.93-2.93-7.055 2.93-7.055 7.055-2.93z"></path>
</symbol>
<symbol id="icon-help" viewBox="0 0 24 24">
<path d="M15.047 11.25q0.938-0.938 0.938-2.25 0-1.641-1.172-2.813t-2.813-1.172-2.813 1.172-1.172 2.813h1.969q0-0.797 0.609-1.406t1.406-0.609 1.406 0.609 0.609 1.406-0.609 1.406l-1.219 1.266q-1.172 1.266-1.172 2.813v0.516h1.969q0-1.547 1.172-2.813zM12.984 18.984v-1.969h-1.969v1.969h1.969zM12 2.016q4.125 0 7.055 2.93t2.93 7.055-2.93 7.055-7.055 2.93-7.055-2.93-2.93-7.055 2.93-7.055 7.055-2.93z"></path>
</symbol>
<symbol id="icon-approval" viewBox="0 0 24 24">
<path d="M12 11.016l3-4.031q0-1.219-0.891-2.109t-2.109-0.891-2.109 0.891-0.891 2.109zM12 2.016q2.063 0 3.539 1.453t1.477 3.516l-5.016 7.031h6q0.797 0 1.406 0.586t0.609 1.383v6h-16.031v-6q0-0.797 0.609-1.383t1.406-0.586h6l-5.016-7.031q0-2.063 1.477-3.516t3.539-1.453zM18 18v-2.016h-12v2.016h12z"></path>
</symbol>
<symbol id="icon-meeting_room" viewBox="0 0 24 24">
<path d="M9.984 11.016v1.969h2.016v-1.969h-2.016zM14.016 6v15h-11.016v-2.016h2.016v-15.984h9v0.984h4.969v15h2.016v2.016h-3.984v-15h-3z"></path>
</symbol>
<symbol id="icon-house_siding" viewBox="0 0 24 24">
<path d="M18.984 12h3l-9.984-9-9.984 9h3v8.016h1.969v-2.016h10.031v2.016h1.969v-8.016zM7.219 9.984h9.563l0.234 0.188v1.828h-10.031v-1.828zM14.578 8.016h-5.156l2.578-2.344zM6.984 15.984v-1.969h10.031v1.969h-10.031z"></path>
</symbol>
<symbol id="icon-insights" viewBox="0 0 24 24">
<path d="M21 8.016q-0.703 0-1.195 0.398t-0.703 0.984-0.023 1.102l-3.563 3.563q-0.516-0.141-1.031 0l-2.531-2.531q0.141-0.563-0.047-1.148t-0.68-0.984-1.242-0.398q-0.703 0-1.195 0.398t-0.68 0.984-0.047 1.148l-4.547 4.547q-0.563-0.188-1.125 0.023t-0.984 0.703-0.422 1.195q0 0.844 0.586 1.43t1.43 0.586q0.703 0 1.195-0.422t0.703-0.984 0.023-1.125l4.547-4.547q0.516 0.141 1.031 0l2.578 2.531q-0.188 0.563 0 1.148t0.68 0.984 1.242 0.398q0.703 0 1.195-0.398t0.703-0.984 0.023-1.148l3.563-3.516q0.563 0.141 1.125-0.047t0.984-0.68 0.422-1.242q0-0.797-0.586-1.383t-1.43-0.586zM15 9l0.938-2.063 2.063-0.938-2.063-0.938-0.938-2.063-0.938 2.063-2.063 0.938 2.063 0.938zM3.516 11.016l0.469-2.016 2.016-0.516-2.016-0.469-0.469-2.016-0.516 2.016-2.016 0.469 2.016 0.516z"></path>
</symbol>
<symbol id="icon-attachment" viewBox="0 0 20 20">
<path d="M5.602 19.8c-1.293 0-2.504-0.555-3.378-1.44-1.695-1.716-2.167-4.711 0.209-7.116 1.391-1.408 6.966-7.053 9.748-9.87 0.988-1 2.245-1.387 3.448-1.060 1.183 0.32 2.151 1.301 2.468 2.498 0.322 1.22-0.059 2.493-1.046 3.493l-9.323 9.44c-0.532 0.539-1.134 0.858-1.738 0.922-0.599 0.064-1.17-0.13-1.57-0.535-0.724-0.736-0.828-2.117 0.378-3.337l6.548-6.63c0.269-0.272 0.705-0.272 0.974 0s0.269 0.714 0 0.986l-6.549 6.631c-0.566 0.572-0.618 1.119-0.377 1.364 0.106 0.106 0.266 0.155 0.451 0.134 0.283-0.029 0.606-0.216 0.909-0.521l9.323-9.439c0.64-0.648 0.885-1.41 0.69-2.145-0.192-0.725-0.778-1.318-1.493-1.513-0.726-0.197-1.48 0.052-2.12 0.7-2.782 2.818-8.356 8.462-9.748 9.87-1.816 1.839-1.381 3.956-0.209 5.143 1.173 1.187 3.262 1.629 5.079-0.212l9.748-9.87c0.269-0.272 0.705-0.272 0.974 0s0.269 0.714 0 0.987l-9.748 9.87c-1.149 1.162-2.436 1.65-3.648 1.65z"></path>
</symbol>
<symbol id="icon-aircraft-take-off" viewBox="0 0 20 20">
<path d="M19.87 6.453c0.119 0.257 0.127 1.29-4.884 3.642l-4.913 2.306c-1.71 0.803-4.191 1.859-5.285 2.151-0.766 0.204-1.497-0.316-1.497-0.316s-2.206-1.975-2.792-2.419c-0.585-0.444-0.535-0.67 0.215-0.91 0.467-0.149 3.13 0.493 4.265 0.78 1.339-0.8 2.562-1.486 3.141-1.798-1.396-1.033-4.008-2.962-4.841-3.55-0.799-0.565 0.010-0.768 0.010-0.768 0.368-0.099 1.162-0.228 1.562-0.144 2.721 0.569 7.263 2.071 7.611 2.186 0.832-0.436 2.128-1.092 2.922-1.465 2.075-0.974 4.327-0.037 4.486 0.305z"></path>
</symbol>
<symbol id="icon-aircraft" viewBox="0 0 20 20">
<path d="M12.496 17.414c-0.394-1.096-1.805-4.775-2.39-6.297-1.103 0.737-2.334 1.435-3.512 1.928-0.366 1.28-1.094 3.709-1.446 4.033-0.604 0.557-0.832 0.485-0.925-0.279s-0.485-3.236-0.485-3.236-2.162-1.219-2.84-1.568-0.667-0.591 0.057-0.974c0.422-0.223 2.927-0.085 4.242 0.005 0.861-0.951 1.931-1.882 2.993-2.679-1.215-1.076-4.15-3.675-5.034-4.424-0.776-0.658 0.079-0.797 0.079-0.797 0.39-0.070 1.222-0.132 1.628-0.009 2.524 0.763 6.442 2.068 7.363 2.376 0.353-0.249 0.737-0.52 1.162-0.821 4.702-3.33 5.887-2.593 6.111-2.27s0.503 1.701-4.199 5.032c-0.425 0.301-0.808 0.573-1.16 0.823-0.029 0.98-0.157 5.151-0.311 7.811-0.025 0.428-0.367 1.198-0.565 1.544-0.001 0-0.423 0.765-0.768-0.198z"></path>
</symbol>
<symbol id="icon-credit-card1" viewBox="0 0 20 20">
<path d="M18 3h-16c-1.101 0-2 0.9-2 2v10c0 1.1 0.899 2 2 2h16c1.1 0 2-0.9 2-2v-10c0-1.1-0.9-2-2-2zM18 15h-16v-6h16v6zM18 6h-16v-1h16v1zM4 11.1v0.6h0.6v-0.6h-0.6zM7.6 12.299v0.601h1.2v-0.601h0.6v-0.6h0.6v-0.6h-1.2v0.6h-0.601v0.6h-0.599zM10 12.9v-0.601h-0.601v0.601h0.601zM7 12.9v-0.601h-1.2v0.601h1.2zM7.6 11.699h0.6v-0.6h-1.2v1.199h0.6v-0.599zM5.199 12.299h0.601v-0.6h0.6v-0.6h-1.2v0.6h-0.6v0.6h-0.6v0.601h1.199v-0.601z"></path>
</symbol>
<symbol id="icon-location" viewBox="0 0 20 20">
<path d="M19.367 18.102l-1.367-4.102h-1.5l0.833 4h-14.666l0.833-4h-1.5l-1.368 4.102c-0.347 1.044 0.268 1.898 1.368 1.898h16c1.1 0 1.715-0.854 1.367-1.898zM15 5c0-2.761-2.238-5-5-5s-5 2.239-5 5c0 4.775 5 10 5 10s5-5.225 5-10zM7.3 5.060c0-1.491 1.208-2.699 2.7-2.699s2.7 1.208 2.7 2.699c0 1.492-1.209 2.7-2.7 2.7s-2.7-1.209-2.7-2.7z"></path>
</symbol>
<symbol id="icon-instagram" viewBox="0 0 32 32">
<path d="M16 2.881c4.275 0 4.781 0.019 6.462 0.094 1.563 0.069 2.406 0.331 2.969 0.55 0.744 0.288 1.281 0.638 1.837 1.194 0.563 0.563 0.906 1.094 1.2 1.838 0.219 0.563 0.481 1.412 0.55 2.969 0.075 1.688 0.094 2.194 0.094 6.463s-0.019 4.781-0.094 6.463c-0.069 1.563-0.331 2.406-0.55 2.969-0.288 0.744-0.637 1.281-1.194 1.837-0.563 0.563-1.094 0.906-1.837 1.2-0.563 0.219-1.413 0.481-2.969 0.55-1.688 0.075-2.194 0.094-6.463 0.094s-4.781-0.019-6.463-0.094c-1.563-0.069-2.406-0.331-2.969-0.55-0.744-0.288-1.281-0.637-1.838-1.194-0.563-0.563-0.906-1.094-1.2-1.837-0.219-0.563-0.481-1.413-0.55-2.969-0.075-1.688-0.094-2.194-0.094-6.463s0.019-4.781 0.094-6.463c0.069-1.563 0.331-2.406 0.55-2.969 0.288-0.744 0.638-1.281 1.194-1.838 0.563-0.563 1.094-0.906 1.838-1.2 0.563-0.219 1.412-0.481 2.969-0.55 1.681-0.075 2.188-0.094 6.463-0.094zM16 0c-4.344 0-4.887 0.019-6.594 0.094-1.7 0.075-2.869 0.35-3.881 0.744-1.056 0.412-1.95 0.956-2.837 1.85-0.894 0.888-1.438 1.781-1.85 2.831-0.394 1.019-0.669 2.181-0.744 3.881-0.075 1.713-0.094 2.256-0.094 6.6s0.019 4.887 0.094 6.594c0.075 1.7 0.35 2.869 0.744 3.881 0.413 1.056 0.956 1.95 1.85 2.837 0.887 0.887 1.781 1.438 2.831 1.844 1.019 0.394 2.181 0.669 3.881 0.744 1.706 0.075 2.25 0.094 6.594 0.094s4.888-0.019 6.594-0.094c1.7-0.075 2.869-0.35 3.881-0.744 1.050-0.406 1.944-0.956 2.831-1.844s1.438-1.781 1.844-2.831c0.394-1.019 0.669-2.181 0.744-3.881 0.075-1.706 0.094-2.25 0.094-6.594s-0.019-4.887-0.094-6.594c-0.075-1.7-0.35-2.869-0.744-3.881-0.394-1.063-0.938-1.956-1.831-2.844-0.887-0.887-1.781-1.438-2.831-1.844-1.019-0.394-2.181-0.669-3.881-0.744-1.712-0.081-2.256-0.1-6.6-0.1v0z"></path>
<path d="M16 7.781c-4.537 0-8.219 3.681-8.219 8.219s3.681 8.219 8.219 8.219 8.219-3.681 8.219-8.219c0-4.537-3.681-8.219-8.219-8.219zM16 21.331c-2.944 0-5.331-2.387-5.331-5.331s2.387-5.331 5.331-5.331c2.944 0 5.331 2.387 5.331 5.331s-2.387 5.331-5.331 5.331z"></path>
<path d="M26.462 7.456c0 1.060-0.859 1.919-1.919 1.919s-1.919-0.859-1.919-1.919c0-1.060 0.859-1.919 1.919-1.919s1.919 0.859 1.919 1.919z"></path>
</symbol>
<symbol id="icon-safari" viewBox="0 0 32 32">
<path d="M16 0c-8.838 0-16 7.162-16 16s7.162 16 16 16 16-7.163 16-16-7.163-16-16-16zM29.95 14.775l-0.031-0.331c0.006 0.113 0.019 0.219 0.031 0.331zM27.762 8.4l-0.225-0.338c0.075 0.113 0.15 0.225 0.225 0.338zM26.894 7.206l-0.137-0.169c0.050 0.056 0.094 0.112 0.137 0.169zM24.956 5.237l-0.169-0.138c0.063 0.050 0.113 0.094 0.169 0.138zM23.938 4.463l-0.337-0.225c0.113 0.075 0.225 0.15 0.337 0.225zM17.556 2.087l-0.337-0.031c0.113 0.006 0.225 0.019 0.337 0.031zM14.775 2.050l-0.338 0.031c0.113-0.006 0.225-0.019 0.338-0.031zM8.4 4.237l-0.338 0.225c0.113-0.075 0.225-0.15 0.338-0.225zM7.206 5.106l-0.162 0.131c0.056-0.044 0.106-0.088 0.162-0.131zM5.237 7.044l-0.138 0.169c0.050-0.056 0.094-0.112 0.138-0.169zM4.463 8.063l-0.225 0.338c0.075-0.113 0.15-0.225 0.225-0.338zM2.087 14.444l-0.031 0.338c0.006-0.113 0.019-0.225 0.031-0.338zM2.050 17.225l0.031 0.337c-0.006-0.113-0.019-0.225-0.031-0.337zM4.237 23.594l0.225 0.337c-0.075-0.106-0.15-0.219-0.225-0.337zM4.5 23.988l2.494-1.669-0.275-0.419-2.494 1.669c-1.131-1.756-1.875-3.775-2.125-5.95l1.494-0.15-0.050-0.5-1.494 0.15c-0.025-0.288-0.038-0.581-0.044-0.875h3v-0.5h-3c0.006-0.294 0.019-0.581 0.044-0.875l1.494 0.144 0.050-0.5-1.494-0.144c0.25-2.175 1-4.194 2.131-5.95l2.494 1.669 0.275-0.419-2.5-1.656c0.169-0.237 0.338-0.475 0.519-0.7l1.156 0.95 0.319-0.388-1.156-0.95c0.188-0.225 0.388-0.438 0.588-0.65l2.119 2.119 0.356-0.356-2.119-2.119c0.213-0.2 0.425-0.4 0.644-0.588l0.95 1.162 0.387-0.319-0.95-1.156c0.231-0.181 0.463-0.356 0.7-0.525l1.669 2.494 0.419-0.275-1.669-2.494c1.756-1.131 3.775-1.875 5.95-2.125l0.15 1.494 0.5-0.050-0.15-1.494c0.287-0.025 0.581-0.038 0.875-0.044v3h0.5v-3c0.294 0.006 0.581 0.019 0.875 0.044l-0.144 1.494 0.5 0.050 0.144-1.494c2.175 0.25 4.194 1 5.95 2.131l-1.669 2.494 0.419 0.275 1.669-2.494c0.238 0.169 0.475 0.338 0.7 0.519l-0.95 1.156 0.387 0.319 0.95-1.156c0.225 0.188 0.438 0.388 0.65 0.588l-0.8 0.781-10.938 7.294-7.294 10.937-0.781 0.781c-0.2-0.212-0.4-0.425-0.588-0.644l1.156-0.95-0.319-0.387-1.156 0.95c-0.181-0.225-0.35-0.462-0.519-0.7zM5.237 24.956c-0.044-0.056-0.088-0.106-0.131-0.163l0.131 0.163zM7.044 26.762l0.162 0.131c-0.056-0.044-0.106-0.087-0.162-0.131zM8.063 27.531l0.338 0.225c-0.113-0.069-0.225-0.144-0.338-0.225zM14.444 29.913l0.338 0.031c-0.113-0.006-0.225-0.019-0.338-0.031zM17.225 29.95l0.331-0.031c-0.113 0.006-0.219 0.019-0.331 0.031zM23.6 27.762l0.337-0.225c-0.113 0.075-0.225 0.15-0.337 0.225zM24.794 26.894l0.169-0.137c-0.056 0.050-0.113 0.094-0.169 0.137zM25.887 25.913l0.025-0.025c-0.006 0.006-0.019 0.019-0.025 0.025zM26.762 24.956l0.137-0.169c-0.050 0.056-0.094 0.113-0.137 0.169zM26.981 24.688l-1.156-0.95-0.319 0.387 1.156 0.95c-0.188 0.225-0.387 0.438-0.587 0.65l-2.119-2.119-0.356 0.356 2.119 2.119c-0.212 0.2-0.425 0.4-0.644 0.587l-0.95-1.163-0.387 0.319 0.95 1.156c-0.231 0.181-0.462 0.356-0.7 0.525l-1.669-2.494-0.419 0.275 1.669 2.494c-1.756 1.131-3.775 1.875-5.95 2.125l-0.15-1.494-0.5 0.050 0.15 1.494c-0.288 0.025-0.581 0.038-0.875 0.044v-3h-0.5v3c-0.294-0.006-0.581-0.019-0.875-0.044l0.144-1.494-0.5-0.050-0.144 1.494c-2.175-0.25-4.194-1-5.95-2.131l1.669-2.494-0.419-0.275-1.656 2.494c-0.237-0.169-0.475-0.337-0.7-0.519l0.95-1.156-0.388-0.319-0.95 1.156c-0.225-0.188-0.438-0.387-0.65-0.587l0.787-0.781 10.937-7.294 7.294-10.938 0.781-0.781c0.2 0.213 0.4 0.425 0.587 0.644l-1.156 0.95 0.319 0.387 1.156-0.95c0.181 0.231 0.356 0.463 0.525 0.7l-2.494 1.669 0.275 0.419 2.494-1.669c1.131 1.756 1.875 3.775 2.125 5.95l-1.494 0.15 0.050 0.5 1.494-0.15c0.025 0.287 0.038 0.581 0.044 0.875h-3v0.5h3c-0.006 0.294-0.019 0.581-0.044 0.875l-1.494-0.144-0.050 0.5 1.494 0.144c-0.25 2.175-1 4.194-2.131 5.95l-2.494-1.669-0.275 0.419 2.494 1.669c-0.163 0.225-0.337 0.456-0.519 0.688zM29.95 17.219c-0.012 0.113-0.019 0.225-0.031 0.337l0.031-0.337zM27.762 23.6c-0.075 0.113-0.15 0.225-0.225 0.337l0.225-0.337z"></path>
<path d="M13.517 2.221l0.585 2.942-0.49 0.098-0.585-2.942 0.49-0.098z"></path>
<path d="M18.489 29.78l-0.585-2.942 0.49-0.098 0.585 2.942-0.49 0.098z"></path>
<path d="M12.176 2.528l0.436 1.435-0.478 0.145-0.436-1.435 0.478-0.145z"></path>
<path d="M19.826 29.465l-0.436-1.435 0.478-0.145 0.436 1.435-0.478 0.145z"></path>
<path d="M10.875 2.972l1.148 2.772-0.462 0.191-1.148-2.772 0.462-0.191z"></path>
<path d="M21.129 29.030l-1.148-2.772 0.462-0.191 1.148 2.772-0.462 0.191z"></path>
<path d="M9.176 3.771l0.441-0.236 0.707 1.323-0.441 0.236-0.707-1.323z"></path>
<path d="M22.816 28.228l-0.441 0.236-0.707-1.323 0.441-0.236 0.707 1.323z"></path>
<path d="M3.769 9.182l1.323 0.707-0.236 0.441-1.323-0.707 0.236-0.441z"></path>
<path d="M28.226 22.819l-1.323-0.707 0.236-0.441 1.323 0.707-0.236 0.441z"></path>
<path d="M5.744 12.019l-2.772-1.148 0.191-0.462 2.772 1.148-0.191 0.462z"></path>
<path d="M26.26 19.978l2.772 1.148-0.191 0.462-2.772-1.148 0.191-0.462z"></path>
<path d="M2.673 11.7l1.436 0.435-0.145 0.479-1.436-0.435 0.145-0.479z"></path>
<path d="M29.322 20.302l-1.436-0.435 0.145-0.479 1.436 0.435-0.145 0.479z"></path>
<path d="M2.315 13.024l2.942 0.585-0.098 0.49-2.942-0.585 0.098-0.49z"></path>
<path d="M29.679 18.976l-2.942-0.585 0.098-0.49 2.942 0.585-0.098 0.49z"></path>
<path d="M2.218 18.486l2.942-0.585 0.098 0.49-2.942 0.585-0.098-0.49z"></path>
<path d="M29.776 13.513l-2.942 0.585-0.098-0.49 2.942-0.585 0.098 0.49z"></path>
<path d="M2.53 19.829l1.435-0.436 0.145 0.478-1.435 0.436-0.145-0.478z"></path>
<path d="M29.468 12.178l-1.435 0.436-0.145-0.478 1.435-0.436 0.145 0.478z"></path>
<path d="M3.161 21.591l-0.191-0.462 2.772-1.148 0.191 0.462-2.772 1.148z"></path>
<path d="M28.837 10.413l0.191 0.462-2.772 1.148-0.191-0.462 2.772-1.148z"></path>
<path d="M3.776 22.821l-0.236-0.441 1.323-0.707 0.236 0.441-1.323 0.707z"></path>
<path d="M28.233 9.181l0.236 0.441-1.323 0.707-0.236-0.441 1.323-0.707z"></path>
<path d="M9.621 28.464l-0.441-0.236 0.707-1.323 0.441 0.236-0.707 1.323z"></path>
<path d="M22.377 3.534l0.441 0.236-0.707 1.323-0.441-0.236 0.707-1.323z"></path>
<path d="M10.415 28.837l1.148-2.772 0.462 0.191-1.148 2.772-0.462-0.191z"></path>
<path d="M21.59 3.16l-1.148 2.772-0.462-0.191 1.148-2.772 0.462 0.191z"></path>
<path d="M12.176 29.47l-0.478-0.145 0.435-1.435 0.478 0.145-0.435 1.435z"></path>
<path d="M19.823 2.528l0.479 0.145-0.435 1.436-0.479-0.145 0.435-1.436z"></path>
<path d="M13.515 29.776l-0.49-0.098 0.585-2.942 0.49 0.098-0.585 2.942z"></path>
<path d="M18.485 2.218l0.49 0.098-0.585 2.942-0.49-0.098 0.585-2.942z"></path>
</symbol>
<symbol id="icon-airplane" viewBox="0 0 32 32">
<path d="M24 19.999l-5.713-5.713 13.713-10.286-4-4-17.141 6.858-5.397-5.397c-1.556-1.556-3.728-1.928-4.828-0.828s-0.727 3.273 0.828 4.828l5.396 5.396-6.858 17.143 4 4 10.287-13.715 5.713 5.713v7.999h4l2-6 6-2v-4l-7.999 0z"></path>
</symbol>
<symbol id="icon-truck1" viewBox="0 0 32 32">
<path d="M32 18l-4-8h-6v-4c0-1.1-0.9-2-2-2h-18c-1.1 0-2 0.9-2 2v16l2 2h2.536c-0.341 0.588-0.536 1.271-0.536 2 0 2.209 1.791 4 4 4s4-1.791 4-4c0-0.729-0.196-1.412-0.536-2h11.073c-0.341 0.588-0.537 1.271-0.537 2 0 2.209 1.791 4 4 4s4-1.791 4-4c0-0.729-0.196-1.412-0.537-2h2.537v-6zM22 18v-6h4.146l3 6h-7.146z"></path>
</symbol>
<symbol id="icon-road" viewBox="0 0 32 32">
<path d="M22 32h10l-8-32h-6l1 8h-6l1-8h-6l-8 32h10l1-8h10l1 8zM11.5 20l1-8h7l1 8h-9z"></path>
</symbol>
<symbol id="icon-linkedin-square" viewBox="0 0 24 28">
<path d="M3.703 22.094h3.609v-10.844h-3.609v10.844zM7.547 7.906c-0.016-1.062-0.781-1.875-2.016-1.875s-2.047 0.812-2.047 1.875c0 1.031 0.781 1.875 2 1.875h0.016c1.266 0 2.047-0.844 2.047-1.875zM16.688 22.094h3.609v-6.219c0-3.328-1.781-4.875-4.156-4.875-1.937 0-2.797 1.078-3.266 1.828h0.031v-1.578h-3.609s0.047 1.016 0 10.844v0h3.609v-6.062c0-0.313 0.016-0.641 0.109-0.875 0.266-0.641 0.859-1.313 1.859-1.313 1.297 0 1.813 0.984 1.813 2.453v5.797zM24 6.5v15c0 2.484-2.016 4.5-4.5 4.5h-15c-2.484 0-4.5-2.016-4.5-4.5v-15c0-2.484 2.016-4.5 4.5-4.5h15c2.484 0 4.5 2.016 4.5 4.5z"></path>
</symbol>
<symbol id="icon-credit-card2" viewBox="0 0 30 28">
<path d="M27.5 2c1.375 0 2.5 1.125 2.5 2.5v19c0 1.375-1.125 2.5-2.5 2.5h-25c-1.375 0-2.5-1.125-2.5-2.5v-19c0-1.375 1.125-2.5 2.5-2.5h25zM2.5 4c-0.266 0-0.5 0.234-0.5 0.5v3.5h26v-3.5c0-0.266-0.234-0.5-0.5-0.5h-25zM27.5 24c0.266 0 0.5-0.234 0.5-0.5v-9.5h-26v9.5c0 0.266 0.234 0.5 0.5 0.5h25zM4 22v-2h4v2h-4zM10 22v-2h6v2h-6z"></path>
</symbol>
<symbol id="icon-youtube-play" viewBox="0 0 28 28">
<path d="M11.109 17.625l7.562-3.906-7.562-3.953v7.859zM14 4.156c5.891 0 9.797 0.281 9.797 0.281 0.547 0.063 1.75 0.063 2.812 1.188 0 0 0.859 0.844 1.109 2.781 0.297 2.266 0.281 4.531 0.281 4.531v2.125s0.016 2.266-0.281 4.531c-0.25 1.922-1.109 2.781-1.109 2.781-1.062 1.109-2.266 1.109-2.812 1.172 0 0-3.906 0.297-9.797 0.297v0c-7.281-0.063-9.516-0.281-9.516-0.281-0.625-0.109-2.031-0.078-3.094-1.188 0 0-0.859-0.859-1.109-2.781-0.297-2.266-0.281-4.531-0.281-4.531v-2.125s-0.016-2.266 0.281-4.531c0.25-1.937 1.109-2.781 1.109-2.781 1.062-1.125 2.266-1.125 2.812-1.188 0 0 3.906-0.281 9.797-0.281v0z"></path>
</symbol>
<symbol id="icon-apple" viewBox="0 0 22 28">
<path d="M21.766 18.984c-0.391 1.234-1.016 2.547-1.922 3.906-1.344 2.047-2.688 3.063-4.016 3.063-0.531 0-1.25-0.172-2.188-0.5-0.922-0.344-1.719-0.5-2.359-0.5-0.625 0-1.375 0.172-2.219 0.516-0.859 0.359-1.547 0.531-2.063 0.531-1.609 0-3.156-1.359-4.703-4.047-1.516-2.688-2.297-5.297-2.297-7.859 0-2.391 0.594-4.328 1.766-5.844 1.172-1.5 2.641-2.25 4.438-2.25 0.766 0 1.672 0.156 2.766 0.469 1.078 0.313 1.797 0.469 2.156 0.469 0.453 0 1.203-0.172 2.234-0.531 1.031-0.344 1.937-0.531 2.703-0.531 1.25 0 2.359 0.344 3.328 1.016 0.547 0.375 1.094 0.906 1.625 1.563-0.812 0.688-1.406 1.297-1.781 1.844-0.672 0.969-1.016 2.047-1.016 3.234 0 1.281 0.359 2.453 1.078 3.484s1.547 1.687 2.469 1.969zM15.891 0.656c0 0.641-0.156 1.359-0.453 2.125-0.313 0.781-0.797 1.5-1.453 2.156-0.562 0.562-1.125 0.938-1.687 1.125-0.359 0.109-0.891 0.203-1.625 0.266 0.031-1.547 0.438-2.891 1.219-4.016s2.094-1.891 3.906-2.312c0.031 0.141 0.063 0.25 0.078 0.344 0 0.109 0.016 0.203 0.016 0.313z"></path>
</symbol>
<symbol id="icon-windows" viewBox="0 0 26 28">
<path d="M10.656 15.719v10.172l-10.656-1.469v-8.703h10.656zM10.656 4.109v10.297h-10.656v-8.828zM26 15.719v12.281l-14.172-1.953v-10.328h14.172zM26 2v12.406h-14.172v-10.453z"></path>
</symbol>
<symbol id="icon-skype" viewBox="0 0 24 28">
<path d="M18.328 16.609c0-2.719-2.641-3.656-4.859-4.156l-1.625-0.375c-1.188-0.281-2.078-0.484-2.078-1.391 0-0.828 0.875-1.203 2.25-1.203 2.453 0 2.5 1.797 4.016 1.797 1.016 0 1.625-0.797 1.625-1.703 0-1.797-2.984-2.969-5.938-2.969-2.703 0-5.844 1.172-5.844 4.344 0 2.625 1.75 3.563 4.031 4.109l2.281 0.562c1.391 0.344 2.25 0.5 2.25 1.5 0 0.797-0.891 1.406-2.266 1.406-2.891 0-3.047-2.406-4.719-2.406-1.094 0-1.578 0.781-1.578 1.641 0 1.922 2.938 3.484 6.453 3.484 2.938 0 6-1.469 6-4.641zM24 20c0 3.313-2.688 6-6 6-1.375 0-2.641-0.469-3.656-1.25-0.75 0.156-1.547 0.25-2.344 0.25-6.078 0-11-4.922-11-11 0-0.797 0.094-1.594 0.25-2.344-0.781-1.016-1.25-2.281-1.25-3.656 0-3.313 2.688-6 6-6 1.375 0 2.641 0.469 3.656 1.25 0.75-0.156 1.547-0.25 2.344-0.25 6.078 0 11 4.922 11 11 0 0.797-0.094 1.594-0.25 2.344 0.781 1.016 1.25 2.281 1.25 3.656z"></path>
</symbol>
<symbol id="icon-cc-visa" viewBox="0 0 36 28">
<path d="M30.859 15.469h-2.156c0 0 0.219-0.578 1.031-2.797-0.016 0.016 0.219-0.578 0.344-0.953l0.187 0.859c0.484 2.391 0.594 2.891 0.594 2.891zM8.297 14.453l-0.906-4.609c-0.125-0.641-0.609-0.844-1.172-0.844h-4.188l-0.031 0.203c2.875 0.734 5.234 2.297 6.297 5.25zM11.094 9l-2.531 6.844-0.266-1.391c-0.547-1.453-1.875-2.797-3.375-3.406l2.109 7.969h2.734l4.078-10.016h-2.75zM13.266 19.031h2.594l1.625-10.031h-2.594zM25.266 9.25c-0.516-0.203-1.328-0.422-2.328-0.422-2.562 0-4.359 1.359-4.375 3.313-0.016 1.437 1.281 2.234 2.266 2.719 1.016 0.484 1.344 0.812 1.344 1.25 0 0.672-0.812 0.969-1.547 0.969-1.047 0-1.609-0.125-2.438-0.516l-0.344-0.172-0.359 2.25c0.609 0.281 1.719 0.531 2.891 0.531 2.719 0.016 4.484-1.344 4.516-3.422 0-1.141-0.703-2-2.188-2.719-0.906-0.453-1.453-0.781-1.453-1.25 0-0.422 0.469-0.859 1.484-0.859 0.844-0.016 1.469 0.156 1.937 0.375l0.234 0.125zM31.906 9h-2c-0.625 0-1.094 0.187-1.359 0.844l-3.844 9.188h2.719c0.438-1.234 0.547-1.5 0.547-1.5h3.313c0 0 0.078 0.344 0.313 1.5h2.406zM36 4v20c0 1.094-0.906 2-2 2h-32c-1.094 0-2-0.906-2-2v-20c0-1.094 0.906-2 2-2h32c1.094 0 2 0.906 2 2z"></path>
</symbol>
<symbol id="icon-cc-mastercard" viewBox="0 0 36 28">
<path d="M17.484 5.328c-1.297-0.859-2.828-1.328-4.391-1.328-4.391 0-7.953 3.563-7.953 7.938 0 4.391 3.563 7.953 7.953 7.953 1.563 0 3.094-0.469 4.391-1.328-4.188-3.406-4.156-9.828 0-13.234zM18 5.703c-4.031 3.172-4.047 9.328 0 12.484 4.047-3.156 4.031-9.312 0-12.484zM18.516 5.328c4.141 3.406 4.203 9.844 0 13.234 1.297 0.859 2.844 1.328 4.391 1.328 4.391 0 7.953-3.563 7.953-7.953 0-4.375-3.563-7.938-7.953-7.938-1.563 0-3.094 0.469-4.391 1.328zM30.094 16.609h0.109v-0.047h-0.266v0.047h0.109v0.266h0.047v-0.266zM30.547 16.875h0.063v-0.313h-0.078l-0.094 0.203-0.094-0.203h-0.078v0.313h0.047v-0.234l0.094 0.203h0.063l0.078-0.203v0.234zM30.422 23.75v0.031h-0.078v-0.047h0.078v0.016zM30.422 23.891h0.047l-0.063-0.078c0.031 0 0.031-0.016 0.047-0.016 0.016-0.016 0.016-0.031 0.016-0.047s0-0.031-0.016-0.047c-0.016 0-0.031-0.016-0.063-0.016h-0.094v0.203h0.047v-0.078h0.016zM10.703 22.828c0-0.375 0.234-0.672 0.641-0.672 0.375 0 0.625 0.297 0.625 0.672 0 0.391-0.25 0.672-0.625 0.672-0.406 0-0.641-0.297-0.641-0.672zM18.094 22.141c0.297 0 0.5 0.172 0.547 0.5h-1.094c0.047-0.297 0.234-0.5 0.547-0.5zM23.656 22.828c0-0.375 0.234-0.672 0.625-0.672s0.641 0.297 0.641 0.672c0 0.391-0.25 0.672-0.641 0.672s-0.625-0.297-0.625-0.672zM27.906 22.828c0-0.375 0.25-0.672 0.641-0.672 0.375 0 0.641 0.297 0.641 0.672 0 0.391-0.266 0.672-0.641 0.672-0.391 0-0.641-0.297-0.641-0.672zM30.375 23.953c-0.016 0-0.031 0-0.063-0.016-0.016 0-0.031-0.016-0.047-0.031s-0.031-0.031-0.031-0.047-0.016-0.047-0.016-0.063 0-0.047 0.016-0.063c0-0.031 0.016-0.047 0.031-0.063s0.031-0.016 0.047-0.031 0.047-0.016 0.063-0.016 0.047 0 0.063 0.016 0.047 0.016 0.063 0.031 0.016 0.031 0.031 0.063c0 0.016 0.016 0.031 0.016 0.063 0 0.016-0.016 0.031-0.016 0.063-0.016 0.016-0.016 0.031-0.031 0.047s-0.031 0.031-0.063 0.031c-0.016 0.016-0.031 0.016-0.063 0.016zM9.359 23.891h0.469v-1.328c0-0.5-0.328-0.828-0.844-0.844-0.266 0-0.547 0.078-0.734 0.375-0.141-0.234-0.375-0.375-0.703-0.375-0.219 0-0.438 0.078-0.609 0.313v-0.25h-0.469v2.109h0.469v-1.172c0-0.375 0.203-0.562 0.516-0.562s0.469 0.203 0.469 0.562v1.172h0.453v-1.172c0-0.375 0.219-0.562 0.516-0.562 0.313 0 0.469 0.203 0.469 0.562v1.172zM11.953 23.891h0.453v-2.109h-0.453v0.25c-0.156-0.187-0.375-0.313-0.672-0.313-0.594 0-1.047 0.469-1.047 1.109s0.453 1.109 1.047 1.109c0.297 0 0.516-0.109 0.672-0.313v0.266zM14.734 23.25c0-0.375-0.281-0.562-0.734-0.625l-0.219-0.031c-0.203-0.031-0.359-0.078-0.359-0.219s0.141-0.234 0.391-0.234c0.281 0 0.531 0.094 0.672 0.172l0.187-0.375c-0.219-0.141-0.516-0.219-0.859-0.219-0.531 0-0.875 0.266-0.875 0.688 0 0.344 0.25 0.547 0.734 0.609l0.203 0.031c0.266 0.047 0.375 0.109 0.375 0.219 0 0.172-0.172 0.266-0.484 0.266s-0.547-0.109-0.703-0.219l-0.203 0.359c0.25 0.172 0.562 0.266 0.906 0.266 0.609 0 0.969-0.281 0.969-0.688zM16.766 23.781l-0.125-0.391c-0.141 0.078-0.281 0.109-0.406 0.109-0.234 0-0.297-0.141-0.297-0.344v-0.953h0.75v-0.422h-0.75v-0.641h-0.469v0.641h-0.438v0.422h0.438v0.953c0 0.484 0.187 0.781 0.734 0.781 0.187 0 0.422-0.063 0.562-0.156zM18.109 21.719c-0.609 0-1.047 0.453-1.047 1.109 0 0.672 0.453 1.109 1.078 1.109 0.313 0 0.609-0.078 0.859-0.297l-0.219-0.344c-0.172 0.141-0.406 0.234-0.609 0.234-0.297 0-0.562-0.141-0.641-0.516h1.578v-0.187c0-0.656-0.406-1.109-1-1.109zM20.594 21.719c-0.266 0-0.438 0.125-0.547 0.313v-0.25h-0.469v2.109h0.469v-1.188c0-0.344 0.141-0.547 0.453-0.547 0.094 0 0.187 0.016 0.281 0.063l0.141-0.438c-0.109-0.047-0.234-0.063-0.328-0.063zM21.063 22.828c0 0.641 0.438 1.109 1.125 1.109 0.313 0 0.531-0.063 0.75-0.25l-0.219-0.375c-0.172 0.125-0.344 0.203-0.547 0.187-0.375 0-0.641-0.266-0.641-0.672s0.266-0.672 0.641-0.672c0.203 0 0.375 0.063 0.547 0.187l0.219-0.375c-0.219-0.172-0.438-0.25-0.75-0.25-0.688 0-1.125 0.469-1.125 1.109zM24.891 23.891h0.469v-2.109h-0.469v0.25c-0.141-0.187-0.359-0.313-0.656-0.313-0.594 0-1.062 0.469-1.062 1.109s0.469 1.109 1.062 1.109c0.297 0 0.516-0.109 0.656-0.313v0.266zM26.969 21.719c-0.266 0-0.438 0.125-0.547 0.313v-0.25h-0.453v2.109h0.453v-1.188c0-0.344 0.156-0.547 0.453-0.547 0.094 0 0.187 0.016 0.281 0.063l0.141-0.438c-0.094-0.047-0.234-0.063-0.328-0.063zM29.156 23.891h0.453v-2.969h-0.453v1.109c-0.141-0.187-0.359-0.313-0.672-0.313-0.578 0-1.047 0.469-1.047 1.109s0.469 1.109 1.047 1.109c0.313 0 0.531-0.109 0.672-0.313v0.266zM30.375 23.578c-0.016 0-0.047 0.016-0.078 0.016-0.031 0.016-0.047 0.031-0.063 0.047-0.031 0.016-0.047 0.047-0.047 0.063-0.016 0.031-0.016 0.063-0.016 0.094 0 0.016 0 0.047 0.016 0.078 0 0.016 0.016 0.047 0.047 0.063 0.016 0.016 0.031 0.031 0.063 0.047s0.063 0.016 0.078 0.016c0.031 0 0.063 0 0.094-0.016 0.016-0.016 0.047-0.031 0.063-0.047s0.031-0.047 0.047-0.063c0.016-0.031 0.016-0.063 0.016-0.078 0-0.031 0-0.063-0.016-0.094-0.016-0.016-0.031-0.047-0.047-0.063s-0.047-0.031-0.063-0.047c-0.031 0-0.063-0.016-0.094-0.016zM36 4v20c0 1.094-0.906 2-2 2h-32c-1.094 0-2-0.906-2-2v-20c0-1.094 0.906-2 2-2h32c1.094 0 2 0.906 2 2z"></path>
</symbol>
<symbol id="icon-street-view" viewBox="0 0 22 28">
<path d="M22 24c0 2.75-5.703 4-11 4s-11-1.25-11-4c0-2.125 3.172-3.125 5.828-3.578 0.547-0.094 1.062 0.266 1.156 0.812s-0.266 1.062-0.812 1.156c-3.219 0.562-4.125 1.437-4.172 1.625 0.156 0.531 3.156 1.984 9 1.984s8.844-1.453 9-2.016c-0.047-0.156-0.953-1.031-4.172-1.594-0.547-0.094-0.906-0.609-0.812-1.156s0.609-0.906 1.156-0.812c2.656 0.453 5.828 1.453 5.828 3.578zM16 10v6c0 0.547-0.453 1-1 1h-1v6c0 0.547-0.453 1-1 1h-4c-0.547 0-1-0.453-1-1v-6h-1c-0.547 0-1-0.453-1-1v-6c0-1.109 0.891-2 2-2h6c1.109 0 2 0.891 2 2zM14.5 4c0 1.937-1.563 3.5-3.5 3.5s-3.5-1.563-3.5-3.5 1.563-3.5 3.5-3.5 3.5 1.563 3.5 3.5z"></path>
</symbol>
<symbol id="icon-credit-card-alt" viewBox="0 0 36 28">
<path d="M0 23.5v-9.5h36v9.5c0 1.375-1.125 2.5-2.5 2.5h-31c-1.375 0-2.5-1.125-2.5-2.5zM10 20v2h6v-2h-6zM4 20v2h4v-2h-4zM33.5 2c1.375 0 2.5 1.125 2.5 2.5v3.5h-36v-3.5c0-1.375 1.125-2.5 2.5-2.5h31z"></path>
</symbol>
</defs>
</svg>
